<svg width="83" height="84" viewBox="0 0 83 84" fill="none" xmlns="http://www.w3.org/2000/svg">
<g clip-path="url(#clip0_767_10755)">
<path d="M77.5485 62.6603H65.0985C70.491 60.6563 75.0076 56.8207 77.8588 51.8241C80.71 46.8275 81.7144 40.9878 80.6963 35.3257C79.6782 29.6636 76.7025 24.5395 72.2893 20.8491C67.8762 17.1587 62.3063 15.1367 56.5535 15.1367C50.8006 15.1367 45.2308 17.1587 40.8176 20.8491C36.4044 24.5395 33.4287 29.6636 32.4107 35.3257C31.3926 40.9878 32.3969 46.8275 35.2481 51.8241C38.0993 56.8207 42.6159 60.6563 48.0085 62.6603H42.6385C42.4506 62.6818 42.2773 62.7716 42.1515 62.9127C42.0256 63.0538 41.9561 63.2362 41.9561 63.4253C41.9561 63.6143 42.0256 63.7968 42.1515 63.9378C42.2773 64.0789 42.4506 64.1688 42.6385 64.1903H77.5485C77.6563 64.2026 77.7655 64.192 77.8689 64.1592C77.9723 64.1264 78.0677 64.0721 78.1487 63.9999C78.2296 63.9277 78.2944 63.8391 78.3388 63.7401C78.3831 63.6411 78.4061 63.5338 78.4061 63.4253C78.4061 63.3168 78.3831 63.2095 78.3388 63.1105C78.2944 63.0114 78.2296 62.9229 78.1487 62.8507C78.0677 62.7784 77.9723 62.7241 77.8689 62.6913C77.7655 62.6585 77.6563 62.6479 77.5485 62.6603ZM40.9585 22.7503C41.2785 23.2836 41.6118 23.8036 41.9585 24.3103C42.0833 24.4574 42.2588 24.5523 42.4502 24.5762C42.6416 24.6002 42.8351 24.5513 42.9923 24.4394C43.1494 24.3275 43.2589 24.1607 43.2989 23.972C43.3389 23.7832 43.3067 23.5864 43.2085 23.4203C42.8185 22.8703 42.4485 22.3103 42.1085 21.7403C44.006 20.203 46.1404 18.9838 48.4285 18.1303C51.2646 21.7766 55.2755 24.3287 59.7798 25.3532C64.2842 26.3776 69.0043 25.8113 73.1385 23.7503C74.4162 25.0833 75.5307 26.5638 76.4585 28.1603C72.3047 31.4336 67.1575 33.1903 61.8692 33.1394C56.5808 33.0884 51.4685 31.233 47.3785 27.8803C47.222 27.7477 47.0192 27.6827 46.8148 27.6995C46.6104 27.7164 46.4211 27.8138 46.2885 27.9703C46.1559 28.1268 46.0909 28.3295 46.1077 28.5339C46.1246 28.7383 46.222 28.9277 46.3785 29.0603C50.7021 32.607 56.0999 34.5842 61.6914 34.6696C67.283 34.7549 72.7386 32.9434 77.1685 29.5303C78.341 31.9195 79.0888 34.4946 79.3785 37.1403C76.2073 39.9731 72.4325 42.0464 68.3406 43.2029C64.2486 44.3594 59.947 44.5688 55.7622 43.8151C51.5773 43.0613 47.619 41.3644 44.1877 38.8529C40.7563 36.3415 37.9421 33.0815 35.9585 29.3203C37.2111 26.844 38.9055 24.6174 40.9585 22.7503ZM71.9585 22.6103C68.2553 24.3301 64.0861 24.7723 60.1046 23.8674C56.1231 22.9625 52.5545 20.7617 49.9585 17.6103C53.7461 16.4835 57.7602 16.3517 61.6137 17.2275C65.4671 18.1033 69.0299 19.9571 71.9585 22.6103ZM35.1885 31.0603C37.3349 34.7697 40.2632 37.9672 43.77 40.4308C47.2768 42.8943 51.278 44.5648 55.4955 45.326C59.7129 46.0873 64.0456 45.9212 68.1924 44.8391C72.3392 43.7571 76.2006 41.7852 79.5085 39.0603C79.5661 41.1786 79.3339 43.2948 78.8185 45.3503C75.9107 48.7003 72.2487 51.3115 68.134 52.9688C64.0193 54.6261 59.5697 55.2821 55.1518 54.8827C50.7339 54.4833 46.4741 53.0399 42.7234 50.6715C38.9726 48.3031 35.8382 45.0775 33.5785 41.2603C33.3288 37.7852 33.8796 34.2991 35.1885 31.0703V31.0603ZM34.0885 44.7703C36.5695 48.0622 39.7124 50.798 43.3149 52.8015C46.9174 54.8051 50.8995 56.0319 55.0049 56.4031C59.1103 56.7742 63.2479 56.2815 67.1513 54.9565C71.0546 53.6316 74.6373 51.5038 77.6685 48.7103C75.7596 53.1793 72.4842 56.9289 68.3122 59.4211C64.1403 61.9132 59.2861 63.0199 54.4462 62.5824C49.6063 62.1448 45.0294 60.1855 41.372 56.9854C37.7147 53.7854 35.1649 49.5092 34.0885 44.7703Z" fill="#143282"/>
<path d="M77.5518 64.3108H42.6417C42.5176 64.324 42.3921 64.3109 42.2734 64.2725C42.1546 64.234 42.0453 64.171 41.9524 64.0876C41.8596 64.0041 41.7854 63.9021 41.7346 63.788C41.6838 63.674 41.6576 63.5506 41.6576 63.4258C41.6576 63.301 41.6838 63.1775 41.7346 63.0635C41.7854 62.9495 41.8596 62.8474 41.9524 62.764C42.0453 62.6805 42.1546 62.6175 42.2734 62.5791C42.3921 62.5406 42.5176 62.5276 42.6417 62.5408H47.3518C42.0361 60.403 37.6303 56.4817 34.8905 51.4499C32.1506 46.4181 31.2475 40.5895 32.3363 34.9645C33.425 29.3395 36.4376 24.2688 40.8571 20.6227C45.2766 16.9766 50.8274 14.9824 56.5568 14.9824C62.2862 14.9824 67.8369 16.9766 72.2564 20.6227C76.6759 24.2688 79.6885 29.3395 80.7772 34.9645C81.866 40.5895 80.9629 46.4181 78.223 51.4499C75.4832 56.4817 71.0774 60.403 65.7617 62.5408H77.5518C77.6759 62.5276 77.8014 62.5406 77.9201 62.5791C78.0389 62.6175 78.1482 62.6805 78.2411 62.764C78.3339 62.8474 78.4081 62.9495 78.4589 63.0635C78.5097 63.1775 78.536 63.301 78.536 63.4258C78.536 63.5506 78.5097 63.674 78.4589 63.788C78.4081 63.9021 78.3339 64.0041 78.2411 64.0876C78.1482 64.171 78.0389 64.234 77.9201 64.2725C77.8014 64.3109 77.6759 64.324 77.5518 64.3108ZM42.6417 62.7808C42.4845 62.8004 42.3399 62.8768 42.235 62.9955C42.1301 63.1143 42.0722 63.2673 42.0722 63.4258C42.0722 63.5842 42.1301 63.7372 42.235 63.856C42.3399 63.9748 42.4845 64.0512 42.6417 64.0708H77.5518C77.6432 64.0822 77.736 64.074 77.8241 64.0468C77.9121 64.0196 77.9934 63.974 78.0625 63.913C78.1315 63.852 78.1868 63.777 78.2247 63.693C78.2626 63.609 78.2822 63.5179 78.2822 63.4258C78.2822 63.3336 78.2626 63.2425 78.2247 63.1585C78.1868 63.0745 78.1315 62.9995 78.0625 62.9385C77.9934 62.8775 77.9121 62.8319 77.8241 62.8047C77.736 62.7775 77.6432 62.7694 77.5518 62.7808H64.4217L65.0618 62.5408C70.4257 60.5473 74.9183 56.7321 77.7543 51.762C80.5904 46.7918 81.5893 40.983 80.5766 35.351C79.5639 29.719 76.604 24.6221 72.2142 20.9512C67.8244 17.2804 62.2841 15.2692 56.5618 15.2692C50.8394 15.2692 45.2991 17.2804 40.9093 20.9512C36.5195 24.6221 33.5596 29.719 32.5469 35.351C31.5342 40.983 32.5332 46.7918 35.3692 51.762C38.2052 56.7321 42.6979 60.5473 48.0618 62.5408L48.7017 62.7808H42.6417ZM56.5618 62.7808C51.328 62.7477 46.2576 60.9542 42.1671 57.689C38.0766 54.4239 35.2039 49.8771 34.0117 44.7808L33.8917 44.2308L34.2317 44.6808C36.687 47.9755 39.8131 50.712 43.4037 52.7099C46.9943 54.7077 50.9677 55.9214 55.0618 56.2708C59.1491 56.638 63.2681 56.1472 67.1548 54.8298C71.0415 53.5125 74.61 51.3976 77.6318 48.6208L78.0518 48.2308L77.8317 48.7508C76.054 52.9182 73.0894 56.4706 69.3072 58.9653C65.5251 61.4601 61.0926 62.787 56.5618 62.7808ZM34.3917 45.3008C35.5528 49.8962 38.1124 54.0177 41.7168 57.0956C45.3213 60.1736 49.7927 62.0562 54.5133 62.4832C59.2339 62.9103 63.9705 61.8607 68.0689 59.4796C72.1672 57.0984 75.4249 53.5033 77.3917 49.1908C74.3631 51.8663 70.8212 53.8969 66.9821 55.1588C63.143 56.4207 59.0872 56.8875 55.0618 56.5308C51.0281 56.1862 47.1093 55.0107 43.552 53.078C39.9947 51.1453 36.8759 48.4974 34.3917 45.3008ZM57.8317 55.1108C56.9584 55.1108 56.0884 55.0708 55.2218 54.9908C50.7718 54.6167 46.4769 53.1787 42.6987 50.798C38.9205 48.4173 35.7697 45.1635 33.5117 41.3108V41.2508C33.2654 37.7586 33.8195 34.2563 35.1318 31.0108L35.2317 30.7808L35.3518 31.0008C37.4889 34.6965 40.4047 37.8829 43.8969 40.3387C47.3891 42.7945 51.3739 44.4608 55.5747 45.222C59.7755 45.9832 64.0916 45.821 68.2234 44.7467C72.3552 43.6724 76.2037 41.7117 79.5018 39.0008L79.6918 38.8408V39.0908C79.7476 41.2201 79.5087 43.3469 78.9817 45.4108C76.3691 48.4627 73.1247 50.9107 69.473 52.5855C65.8212 54.2603 61.8492 55.1219 57.8317 55.1108ZM33.7418 41.2108C35.9922 45.0045 39.1109 48.21 42.8416 50.5635C46.5723 52.917 50.8083 54.3514 55.2014 54.7487C59.5945 55.146 64.0191 54.495 68.1115 52.849C72.2039 51.203 75.8472 48.6092 78.7418 45.2808C79.2424 43.3211 79.4779 41.3031 79.4418 39.2808C76.1278 41.9611 72.275 43.8954 68.1458 44.9519C64.0167 46.0084 59.7082 46.1623 55.5142 45.403C51.3202 44.6438 47.3392 42.9892 43.8426 40.5521C40.3459 38.1151 37.4157 34.9528 35.2518 31.2808C34.011 34.4359 33.4949 37.8295 33.7418 41.2108ZM60.8418 44.4408C59.1413 44.4406 57.4444 44.2867 55.7718 43.9808C51.5715 43.2248 47.6011 41.5144 44.1664 38.9813C40.7318 36.4482 37.9247 33.1602 35.9618 29.3708V29.3208V29.2608C37.2184 26.7783 38.9122 24.5426 40.9618 22.6608L41.0717 22.5608L41.1518 22.6908C41.4818 23.2308 41.8218 23.7508 42.1518 24.2408C42.252 24.379 42.4026 24.4722 42.571 24.5002C42.7394 24.5283 42.9121 24.489 43.0517 24.3908C43.1878 24.2889 43.2794 24.1385 43.3073 23.9709C43.3353 23.8032 43.2974 23.6312 43.2017 23.4908C42.8117 22.9508 42.4418 22.3808 42.1018 21.8008L42.0517 21.7108L42.1318 21.6408C44.0413 20.0998 46.185 18.8743 48.4817 18.0108H48.5717L48.6218 18.0808C51.4386 21.7046 55.4231 24.2415 59.8983 25.2605C64.3736 26.2796 69.0637 25.7178 73.1717 23.6708H73.2518L73.3217 23.7308C74.6053 25.0723 75.7233 26.5629 76.6518 28.1708L76.7017 28.2608L76.6218 28.3308C72.4455 31.6198 67.2713 33.3839 61.9557 33.3312C56.6401 33.2785 51.5019 31.412 47.3917 28.0408C47.2578 27.9354 47.0883 27.8859 46.9186 27.9026C46.749 27.9194 46.5924 28.0012 46.4817 28.1308C46.4272 28.1952 46.3865 28.2702 46.3624 28.3511C46.3384 28.432 46.3313 28.517 46.3418 28.6008C46.3602 28.7712 46.4424 28.9283 46.5717 29.0408C50.8714 32.5559 56.229 34.5214 61.7818 34.6208H62.1818C67.6072 34.6104 72.8783 32.8146 77.1818 29.5108L77.3018 29.4108L77.3718 29.5508C78.5526 31.9517 79.3039 34.5408 79.5918 37.2008V37.2608C74.4488 41.8971 67.766 44.4562 60.8418 44.4408ZM36.1518 29.3208C38.1308 33.0505 40.9312 36.2821 44.3415 38.7715C47.7519 41.261 51.6831 42.9433 55.8386 43.6916C59.994 44.4398 64.2652 44.2345 68.3297 43.091C72.3942 41.9476 76.1459 39.8959 79.3018 37.0908C79.0179 34.5305 78.2975 32.0378 77.1717 29.7208C72.7215 33.1059 67.26 34.8918 61.6695 34.7902C56.079 34.6886 50.6861 32.7053 46.3617 29.1608C46.2704 29.0878 46.195 28.9969 46.1399 28.8937C46.0849 28.7906 46.0515 28.6773 46.0417 28.5608C46.0266 28.4452 46.0356 28.3277 46.0684 28.2158C46.1011 28.1039 46.1567 28 46.2317 27.9108C46.3805 27.7281 46.5956 27.6118 46.8299 27.5874C47.0642 27.5631 47.2986 27.6326 47.4817 27.7808C51.5386 31.1002 56.6004 32.9473 61.8418 33.0208H62.1318C67.2771 33.0149 72.2737 31.2942 76.3317 28.1308C75.4349 26.6026 74.3645 25.1832 73.1417 23.9008C69.0003 25.9386 64.2845 26.4913 59.7841 25.4664C55.2837 24.4414 51.2722 21.901 48.4217 18.2708C46.213 19.1138 44.1484 20.2945 42.3017 21.7708C42.6317 22.3108 42.9717 22.8408 43.3017 23.3408C43.3896 23.5308 43.4077 23.7457 43.3528 23.9477C43.2979 24.1497 43.1736 24.3259 43.0016 24.4453C42.8297 24.5648 42.6211 24.6197 42.4126 24.6006C42.2041 24.5815 42.0091 24.4895 41.8617 24.3408C41.5417 23.8908 41.2218 23.4108 40.9118 22.9108C38.9611 24.7514 37.3498 26.9212 36.1518 29.3208ZM64.2518 24.4408C61.5191 24.4355 58.8213 23.8268 56.3511 22.6582C53.8808 21.4897 51.6991 19.7901 49.9618 17.6808L49.8418 17.5408L50.0218 17.4908C53.823 16.3387 57.8584 16.1938 61.7325 17.0703C65.6066 17.9468 69.1866 19.8146 72.1218 22.4908L72.2617 22.6108L72.0918 22.6908C69.6392 23.8444 66.9621 24.442 64.2518 24.4408ZM50.2518 17.6608C52.82 20.7161 56.3158 22.8491 60.2075 23.7353C64.0991 24.6216 68.1738 24.2127 71.8118 22.5708C68.9306 19.979 65.4338 18.168 61.6546 17.3103C57.8754 16.4526 53.9395 16.5767 50.2218 17.6708L50.2518 17.6608Z" fill="#143282"/>
<path d="M44.5513 27.0107C44.9765 27.0107 45.3213 26.666 45.3213 26.2407C45.3213 25.8154 44.9765 25.4707 44.5513 25.4707C44.126 25.4707 43.7812 25.8154 43.7812 26.2407C43.7812 26.666 44.126 27.0107 44.5513 27.0107Z" fill="#143282"/>
<path d="M44.5484 27.1398C44.3704 27.1398 44.1964 27.0871 44.0484 26.9882C43.9004 26.8893 43.7851 26.7487 43.7169 26.5843C43.6488 26.4198 43.631 26.2389 43.6657 26.0643C43.7005 25.8897 43.7862 25.7293 43.912 25.6035C44.0379 25.4776 44.1983 25.3919 44.3729 25.3571C44.5474 25.3224 44.7284 25.3402 44.8928 25.4084C45.0573 25.4765 45.1979 25.5918 45.2967 25.7398C45.3956 25.8878 45.4484 26.0618 45.4484 26.2399C45.4498 26.3584 45.4274 26.476 45.3827 26.5858C45.3379 26.6956 45.2716 26.7954 45.1878 26.8792C45.104 26.9631 45.0042 27.0293 44.8944 27.0741C44.7846 27.1188 44.667 27.1412 44.5484 27.1398ZM44.5484 25.5898C44.4199 25.5898 44.2942 25.628 44.1873 25.6994C44.0804 25.7708 43.9971 25.8723 43.9479 25.9911C43.8987 26.1099 43.8858 26.2406 43.9109 26.3667C43.936 26.4927 43.9979 26.6086 44.0888 26.6995C44.1797 26.7904 44.2955 26.8523 44.4216 26.8774C44.5477 26.9024 44.6784 26.8896 44.7972 26.8404C44.9159 26.7912 45.0175 26.7079 45.0889 26.601C45.1603 26.4941 45.1984 26.3684 45.1984 26.2399C45.1958 26.0683 45.1265 25.9044 45.0052 25.7831C44.8838 25.6617 44.72 25.5924 44.5484 25.5898Z" fill="#143282"/>
<path d="M77.3595 73.4395H59.0195C58.7543 73.4395 58.5 73.3341 58.3124 73.1466C58.1249 72.959 58.0195 72.7047 58.0195 72.4395C58.0195 72.1742 58.1249 71.9199 58.3124 71.7323C58.5 71.5448 58.7543 71.4395 59.0195 71.4395H77.3595C77.6247 71.4395 77.8791 71.5448 78.0667 71.7323C78.2542 71.9199 78.3595 72.1742 78.3595 72.4395C78.3595 72.7047 78.2542 72.959 78.0667 73.1466C77.8791 73.3341 77.6247 73.4395 77.3595 73.4395Z" fill="#143282"/>
<path d="M52.8788 73.4395H47.4688C47.2035 73.4395 46.9492 73.3341 46.7616 73.1466C46.5741 72.959 46.4688 72.7047 46.4688 72.4395C46.4688 72.1742 46.5741 71.9199 46.7616 71.7323C46.9492 71.5448 47.2035 71.4395 47.4688 71.4395H52.8788C53.144 71.4395 53.3983 71.5448 53.5858 71.7323C53.7734 71.9199 53.8788 72.1742 53.8788 72.4395C53.8788 72.7047 53.7734 72.959 53.5858 73.1466C53.3983 73.3341 53.144 73.4395 52.8788 73.4395Z" fill="#143282"/>
<path d="M38.44 55.5907C38.0044 55.5909 37.5708 55.6481 37.15 55.7607C36.8709 54.6378 36.1906 53.6558 35.2375 52.9997C34.2844 52.3437 33.1243 52.0589 31.9757 52.1991C30.8272 52.3393 29.7696 52.8947 29.0022 53.7608C28.2349 54.6268 27.8109 55.7436 27.81 56.9007V60.3107H15.37V56.9007C15.3692 55.7436 14.9451 54.6268 14.1778 53.7608C13.4104 52.8947 12.3528 52.3393 11.2043 52.1991C10.0557 52.0589 8.89558 52.3437 7.94247 52.9997C6.98937 53.6558 6.30915 54.6378 6.03001 55.7607C5.6091 55.6488 5.17552 55.5917 4.74001 55.5907C3.48288 55.5907 2.27724 56.0901 1.38832 56.979C0.499398 57.8679 0 59.0735 0 60.3307V68.0907C0.0026421 69.347 0.502885 70.5511 1.39124 71.4394C2.27959 72.3278 3.48369 72.828 4.74001 72.8307C5.1763 72.8312 5.61053 72.7706 6.03001 72.6507C6.30893 73.7727 6.98834 74.7542 7.9404 75.4103C8.89246 76.0663 10.0515 76.3518 11.1993 76.2129C12.3472 76.0741 13.4047 75.5204 14.1728 74.6562C14.941 73.792 15.3667 72.6769 15.37 71.5207V68.1107H27.81V71.5207C27.8133 72.6769 28.2391 73.792 29.0072 74.6562C29.7753 75.5204 30.8328 76.0741 31.9807 76.2129C33.1285 76.3518 34.2876 76.0663 35.2396 75.4103C36.1917 74.7542 36.8711 73.7727 37.15 72.6507C37.5659 72.7713 37.9969 72.8319 38.43 72.8307C39.6871 72.8307 40.8928 72.3313 41.7817 71.4424C42.6706 70.5534 43.17 69.3478 43.17 68.0907V60.3307C43.17 59.0753 42.672 57.8712 41.7852 56.9825C40.8985 56.0939 39.6954 55.5933 38.44 55.5907ZM5.89 70.3807C5.5346 70.5647 5.14022 70.6607 4.74001 70.6607C4.06013 70.658 3.40901 70.3861 2.9292 69.9044C2.44939 69.4227 2.18 68.7705 2.18001 68.0907V60.3307C2.18 59.6508 2.44939 58.9986 2.9292 58.5169C3.40901 58.0353 4.06013 57.7633 4.74001 57.7607C5.1394 57.7575 5.53374 57.8501 5.89 58.0307V70.3807ZM13.2 71.5207C13.2 72.2023 12.9292 72.856 12.4473 73.3379C11.9653 73.8199 11.3116 74.0907 10.63 74.0907C9.9484 74.0907 9.29471 73.8199 8.81274 73.3379C8.33078 72.856 8.06001 72.2023 8.06001 71.5207V56.9007C8.06001 56.2191 8.33078 55.5654 8.81274 55.0834C9.29471 54.6014 9.9484 54.3307 10.63 54.3307C11.3116 54.3307 11.9653 54.6014 12.4473 55.0834C12.9292 55.5654 13.2 56.2191 13.2 56.9007V71.5207ZM27.81 65.9307H15.37V62.4407H27.81V65.9307ZM35.12 57.4307V71.5207C35.12 72.2023 34.8492 72.856 34.3673 73.3379C33.8853 73.8199 33.2316 74.0907 32.55 74.0907C31.8684 74.0907 31.2147 73.8199 30.7327 73.3379C30.2508 72.856 29.98 72.2023 29.98 71.5207V56.9007C29.98 56.2191 30.2508 55.5654 30.7327 55.0834C31.2147 54.6014 31.8684 54.3307 32.55 54.3307C33.2316 54.3307 33.8853 54.6014 34.3673 55.0834C34.8492 55.5654 35.12 56.2191 35.12 56.9007V57.4407V57.4307ZM40.96 68.0907C40.96 68.7723 40.6892 69.426 40.2073 69.9079C39.7253 70.3899 39.0716 70.6607 38.39 70.6607C37.9931 70.6595 37.6023 70.5635 37.25 70.3807V58.0307C37.6063 57.8501 38.0006 57.7575 38.4 57.7607C39.0799 57.7633 39.731 58.0353 40.2108 58.5169C40.6906 58.9986 40.96 59.6508 40.96 60.3307V68.0907ZM15.76 42.7707C15.76 43.0598 15.6452 43.337 15.4408 43.5414C15.2363 43.7458 14.9591 43.8607 14.67 43.8607H12.67C12.3809 43.8607 12.1037 43.7458 11.8993 43.5414C11.6948 43.337 11.58 43.0598 11.58 42.7707C11.58 42.4816 11.6948 42.2043 11.8993 41.9999C12.1037 41.7955 12.3809 41.6807 12.67 41.6807H14.67C14.8165 41.6753 14.9625 41.6995 15.0994 41.7519C15.2363 41.8042 15.3612 41.8837 15.4667 41.9854C15.5722 42.0872 15.6561 42.2092 15.7134 42.3441C15.7706 42.479 15.8001 42.6241 15.8 42.7707H15.76ZM15.76 46.2707C15.76 46.5598 15.6452 46.837 15.4408 47.0414C15.2363 47.2458 14.9591 47.3607 14.67 47.3607H12.67C12.4002 47.3347 12.1498 47.2092 11.9675 47.0086C11.7853 46.808 11.6843 46.5467 11.6843 46.2757C11.6843 46.0046 11.7853 45.7433 11.9675 45.5427C12.1498 45.3421 12.4002 45.2166 12.67 45.1907H14.67C14.816 45.1839 14.9618 45.2068 15.0987 45.2581C15.2355 45.3093 15.3606 45.3878 15.4662 45.4888C15.5719 45.5897 15.6559 45.7111 15.7133 45.8455C15.7707 45.9799 15.8002 46.1245 15.8 46.2707H15.76ZM6.39 56.7207C6.67643 56.7207 6.95115 56.6069 7.15369 56.4043C7.35623 56.2018 7.47 55.9271 7.47 55.6407V47.5507C8.18592 47.1333 8.77991 46.5356 9.19275 45.8171C9.60559 45.0985 9.82285 44.2843 9.82285 43.4557C9.82285 42.627 9.60559 41.8128 9.19275 41.0943C8.77991 40.3757 8.18592 39.778 7.47 39.3607V39.2807C7.47 38.5991 7.74078 37.9454 8.22275 37.4634C8.70472 36.9814 9.3584 36.7107 10.04 36.7107H17.35C17.9672 36.6916 18.5706 36.8953 19.0498 37.2846C19.5291 37.6739 19.8522 38.2227 19.96 38.8307C18.3727 40.4018 17.4067 42.4936 17.24 44.7207C17.1696 45.6185 17.3982 46.5144 17.8902 47.2686C18.3822 48.0229 19.11 48.5932 19.96 48.8907V60.8907C19.96 61.1798 20.0748 61.457 20.2793 61.6614C20.4837 61.8658 20.7609 61.9807 21.05 61.9807C21.3391 61.9807 21.6163 61.8658 21.8208 61.6614C22.0252 61.457 22.14 61.1798 22.14 60.8907V48.8907C22.9975 48.6003 23.7341 48.033 24.2337 47.2781C24.7334 46.5231 24.9678 45.6234 24.9 44.7207C24.7407 42.4453 23.7472 40.3088 22.11 38.7207C22.0063 37.7623 21.6128 36.8584 20.9821 36.1294C20.3514 35.4005 19.5135 34.8811 18.58 34.6407V31.3807C18.58 31.0916 18.4652 30.8143 18.2608 30.6099C18.0563 30.4055 17.7791 30.2907 17.49 30.2907H16.96V27.5707C16.9671 27.4204 16.9428 27.2703 16.8885 27.1299C16.8343 26.9896 16.7513 26.8622 16.6449 26.7558C16.5385 26.6494 16.4111 26.5664 16.2707 26.5121C16.1304 26.4579 15.9803 26.4335 15.83 26.4407H11.64C11.3509 26.4407 11.0737 26.5555 10.8693 26.7599C10.6648 26.9643 10.55 27.2416 10.55 27.5307V30.2507H9.96001C9.67092 30.2507 9.39367 30.3655 9.18925 30.5699C8.98484 30.7743 8.87001 31.0516 8.87001 31.3407V34.6507C7.85153 34.9125 6.94901 35.5055 6.30452 36.3365C5.66003 37.1674 5.31018 38.1891 5.31001 39.2407V40.0007C5.31222 40.2185 5.38026 40.4306 5.50519 40.609C5.63012 40.7875 5.80609 40.924 6.01001 41.0007C6.4957 41.1867 6.91352 41.5157 7.20827 41.9442C7.50302 42.3727 7.66083 42.8806 7.66083 43.4007C7.66083 43.9208 7.50302 44.4286 7.20827 44.8571C6.91352 45.2856 6.4957 45.6147 6.01001 45.8007C5.80763 45.8796 5.63315 46.0167 5.50858 46.1947C5.384 46.3726 5.31491 46.5835 5.31001 46.8007V55.5707C5.30009 55.7217 5.32201 55.8731 5.37437 56.0151C5.42674 56.1572 5.50838 56.2866 5.61398 56.395C5.71959 56.5034 5.8468 56.5885 5.98738 56.6446C6.12796 56.7007 6.27876 56.7266 6.43001 56.7207H6.39ZM21 40.8207C21.9503 41.9153 22.5373 43.2781 22.68 44.7207C22.68 46.2107 21.83 46.8807 21 46.8807C20.17 46.8807 19.32 46.2107 19.32 44.7207C19.474 43.2735 20.0752 41.9103 21.04 40.8207H21ZM12.68 28.6507H14.68V30.2907H12.68V28.6507ZM11.07 32.4407H16.39V34.5407H11.07V32.4407Z" fill="#143282"/>
<path d="M5.88968 70.3798C5.53428 70.5639 5.1399 70.6599 4.73969 70.6598C4.05981 70.6572 3.40869 70.3853 2.92888 69.9036C2.44907 69.4219 2.17968 68.7697 2.17969 68.0898V60.3298C2.17968 59.65 2.44907 58.9978 2.92888 58.5161C3.40869 58.0344 4.05981 57.7625 4.73969 57.7598C5.13908 57.7567 5.53342 57.8493 5.88968 58.0298V70.3798Z" fill="#D2E2F2"/>
<path d="M13.1986 71.5201C13.1986 72.2017 12.9278 72.8554 12.4458 73.3373C11.9639 73.8193 11.3102 74.0901 10.6286 74.0901C9.94698 74.0901 9.29329 73.8193 8.81133 73.3373C8.32936 72.8554 8.05859 72.2017 8.05859 71.5201V56.9001C8.05859 56.2185 8.32936 55.5648 8.81133 55.0828C9.29329 54.6008 9.94698 54.3301 10.6286 54.3301C11.3102 54.3301 11.9639 54.6008 12.4458 55.0828C12.9278 55.5648 13.1986 56.2185 13.1986 56.9001V71.5201Z" fill="#D2E2F2"/>
<path d="M35.1205 57.4401V71.5301C35.1205 72.2117 34.8497 72.8654 34.3677 73.3473C33.8858 73.8293 33.2321 74.1001 32.5505 74.1001C31.8689 74.1001 31.2152 73.8293 30.7332 73.3473C30.2512 72.8654 29.9805 72.2117 29.9805 71.5301V56.9001C29.9805 56.2185 30.2512 55.5648 30.7332 55.0828C31.2152 54.6008 31.8689 54.3301 32.5505 54.3301C33.2321 54.3301 33.8858 54.6008 34.3677 55.0828C34.8497 55.5648 35.1205 56.2185 35.1205 56.9001V57.4401Z" fill="#D2E2F2"/>
<path d="M40.96 68.0898C40.96 68.7715 40.6892 69.4251 40.2072 69.9071C39.7253 70.3891 39.0716 70.6598 38.39 70.6598C37.9931 70.6587 37.6023 70.5627 37.25 70.3798V58.0298C37.6063 57.8493 38.0006 57.7567 38.4 57.7598C39.0799 57.7625 39.731 58.0344 40.2108 58.5161C40.6906 58.9978 40.96 59.65 40.96 60.3298V68.0898Z" fill="#D2E2F2"/>
<path d="M21.0394 40.8203C21.9897 41.915 22.5767 43.2777 22.7194 44.7203C22.7194 46.2103 21.8694 46.8803 21.0394 46.8803C20.2094 46.8803 19.3594 46.2103 19.3594 44.7203C19.502 43.2777 20.0891 41.915 21.0394 40.8203Z" fill="#D2E2F2"/>
</g>
<defs>
<clipPath id="clip0_767_10755">
<rect width="81.23" height="61.25" fill="white" transform="translate(0 15)"/>
</clipPath>
</defs>
</svg>
