<svg width="64" height="78" viewBox="0 0 64 78" fill="none" xmlns="http://www.w3.org/2000/svg">
<g clip-path="url(#clip0_772_11155)">
<path d="M48.3397 53.4206C48.3397 53.4206 51.5197 76.8006 41.6597 76.8006C31.7997 76.8006 22.9497 76.6706 20.7097 73.8006C19.0797 71.6806 11.5997 70.1706 7.63972 69.5006C6.95441 69.3753 6.3341 69.0153 5.88523 68.4825C5.43637 67.9497 5.18694 67.2773 5.17973 66.5806V56.9906C5.17593 56.3156 5.43087 55.6648 5.89213 55.1719C6.35339 54.679 6.98593 54.3815 7.65974 54.3406C10.2997 54.2006 14.3997 53.3406 16.5097 49.8106C16.6235 49.6091 16.7504 49.4154 16.8897 49.2306C21.4297 38.9906 28.7097 38.6206 32.1197 39.1306C33.3697 39.3306 34.2297 40.2506 34.8797 41.7206C35.5797 41.7206 36.2997 41.7206 37.0297 41.8006C46.8997 42.3906 52.6497 44.8006 52.6497 49.8006L48.3397 53.4206Z" fill="white"/>
<path d="M41.6511 77.5992C30.5211 77.5992 22.4612 77.3592 20.0612 74.2492C19.0612 72.8892 14.3312 71.3992 7.50115 70.2492C6.62344 70.1041 5.82618 69.6509 5.25253 68.9709C4.67887 68.291 4.36637 67.4288 4.37115 66.5392V56.9492C4.3671 56.0687 4.70081 55.2202 5.30355 54.5784C5.90629 53.9366 6.73216 53.5504 7.61114 53.4992C10.3211 53.3592 13.9412 52.4992 15.8112 49.3592C15.9012 49.1892 16.0211 49.0192 16.1411 48.8392C21.0111 37.8392 29.0011 37.8392 32.2111 38.2992C32.9082 38.4363 33.5604 38.7436 34.11 39.1937C34.6596 39.6439 35.0894 40.2228 35.3611 40.8792C35.8711 40.8792 36.4211 40.8792 37.0511 40.9592C48.0511 41.6192 53.4211 44.4992 53.4211 49.7692C53.4214 49.8851 53.3965 49.9996 53.3482 50.105C53.2999 50.2103 53.2292 50.3038 53.1411 50.3792L49.1411 53.7492C49.4611 56.4292 50.8511 70.1892 46.2411 75.4692C45.681 76.1414 44.9789 76.681 44.1852 77.0493C43.3915 77.4176 42.5261 77.6054 41.6511 77.5992ZM17.6511 49.3892C17.6286 49.4908 17.5842 49.5863 17.5211 49.6692C17.4051 49.8206 17.3014 49.9811 17.2111 50.1492C14.8411 54.1492 10.2112 54.9692 7.69115 55.1492C7.22252 55.1798 6.7833 55.3885 6.46352 55.7324C6.14374 56.0763 5.9676 56.5296 5.97115 56.9992V66.5892C5.96909 67.1002 6.14911 67.5953 6.47897 67.9856C6.80882 68.3759 7.26692 68.636 7.77114 68.7192C13.0311 69.6092 19.6511 71.1192 21.3311 73.3192C23.4311 76.0492 33.5311 76.0492 41.6511 76.0492C42.3047 76.0598 42.9524 75.9233 43.5461 75.6498C44.1398 75.3763 44.6644 74.9728 45.0811 74.4692C49.6111 69.2692 47.5612 53.7292 47.5412 53.5692C47.5221 53.4367 47.5379 53.3015 47.587 53.177C47.6361 53.0525 47.7168 52.943 47.8212 52.8592L51.8212 49.4592C51.5512 45.4592 46.6811 43.1892 36.9611 42.6092C36.1411 42.5492 35.4811 42.5292 34.8611 42.5292C34.7074 42.5282 34.5571 42.4835 34.4278 42.4002C34.2986 42.317 34.1957 42.1987 34.1312 42.0592C33.3612 40.3392 32.5312 40.0592 31.9712 39.9292C29.1412 39.4592 22.0911 39.5292 17.6511 49.3892Z" fill="#143282"/>
<path d="M35.3586 77.5707C35.2535 77.5707 35.1495 77.55 35.0524 77.5098C34.9554 77.4696 34.8672 77.4107 34.7929 77.3364C34.7186 77.2621 34.6597 77.1739 34.6195 77.0768C34.5793 76.9798 34.5586 76.8757 34.5586 76.7707V0.770691C34.5586 0.558518 34.6429 0.355046 34.7929 0.205017C34.9429 0.054988 35.1464 -0.0292969 35.3586 -0.0292969C35.5708 -0.0292969 35.7743 0.054988 35.9243 0.205017C36.0743 0.355046 36.1586 0.558518 36.1586 0.770691V76.7707C36.1586 76.9829 36.0743 77.1863 35.9243 77.3364C35.7743 77.4864 35.5708 77.5707 35.3586 77.5707Z" fill="#143282"/>
<path d="M62.9916 14.6208L35.3516 26.7108V0.800781L62.9916 14.6208Z" fill="#FDC300"/>
<path d="M35.3586 27.5192C35.2027 27.5175 35.0504 27.4725 34.9186 27.3892C34.8071 27.3169 34.7156 27.2175 34.6527 27.1004C34.5898 26.9833 34.5574 26.8522 34.5586 26.7192V0.799225C34.5588 0.662893 34.5938 0.528846 34.6603 0.409836C34.7268 0.290825 34.8226 0.190791 34.9386 0.119217C35.056 0.0525994 35.1886 0.0175781 35.3236 0.0175781C35.4586 0.0175781 35.5912 0.0525994 35.7086 0.119217L63.3586 13.9392C63.4966 14.0036 63.6134 14.106 63.6952 14.2344C63.777 14.3628 63.8204 14.5119 63.8204 14.6642C63.8204 14.8165 63.777 14.9656 63.6952 15.094C63.6134 15.2224 63.4966 15.3249 63.3586 15.3892L35.6486 27.4492C35.5574 27.4912 35.4589 27.515 35.3586 27.5192ZM36.1586 2.09921V25.4992L61.1086 14.5792L36.1586 2.09921Z" fill="#FDC300"/>
<path d="M48.7686 45.9102H36.6686C34.5368 45.9102 32.8086 47.6383 32.8086 49.7702C32.8086 51.902 34.5368 53.6302 36.6686 53.6302H48.7686C50.9004 53.6302 52.6286 51.902 52.6286 49.7702C52.6286 47.6383 50.9004 45.9102 48.7686 45.9102Z" fill="white"/>
<path d="M48.7693 54.4394H36.6493C35.4494 54.3838 34.3171 53.868 33.4876 52.9993C32.6581 52.1305 32.1953 50.9755 32.1953 49.7744C32.1953 48.5732 32.6581 47.4182 33.4876 46.5495C34.3171 45.6807 35.4494 45.1649 36.6493 45.1094H48.7493C49.9491 45.1649 51.0815 45.6807 51.9109 46.5495C52.7404 47.4182 53.2032 48.5732 53.2032 49.7744C53.2032 50.9755 52.7404 52.1305 51.9109 52.9993C51.0815 53.868 49.9491 54.3838 48.7493 54.4394H48.7693ZM36.6493 46.7294C35.8666 46.7741 35.1308 47.1165 34.5925 47.6864C34.0543 48.2563 33.7544 49.0105 33.7544 49.7944C33.7544 50.5783 34.0543 51.3325 34.5925 51.9024C35.1308 52.4722 35.8666 52.8147 36.6493 52.8594H48.7493C49.5319 52.8147 50.2677 52.4722 50.806 51.9024C51.3443 51.3325 51.6441 50.5783 51.6441 49.7944C51.6441 49.0105 51.3443 48.2563 50.806 47.6864C50.2677 47.1165 49.5319 46.7741 48.7493 46.7294H36.6493Z" fill="#143282"/>
<path d="M48.7686 53.6309H36.6686C34.5368 53.6309 32.8086 55.359 32.8086 57.4909C32.8086 59.6227 34.5368 61.3509 36.6686 61.3509H48.7686C50.9004 61.3509 52.6286 59.6227 52.6286 57.4909C52.6286 55.359 50.9004 53.6309 48.7686 53.6309Z" fill="white"/>
<path d="M48.7683 62.1598H36.6483C35.4124 62.1598 34.2271 61.6689 33.3532 60.795C32.4793 59.921 31.9883 58.7358 31.9883 57.4998C31.9883 56.2639 32.4793 55.0786 33.3532 54.2047C34.2271 53.3308 35.4124 52.8398 36.6483 52.8398H48.7483C49.9842 52.8398 51.1695 53.3308 52.0434 54.2047C52.9173 55.0786 53.4083 56.2639 53.4083 57.4998C53.4083 58.7358 52.9173 59.921 52.0434 60.795C51.1695 61.6689 49.9842 62.1598 48.7483 62.1598H48.7683ZM36.6483 54.4398C35.8367 54.4398 35.0584 54.7622 34.4845 55.3361C33.9107 55.91 33.5883 56.6883 33.5883 57.4998C33.5883 58.3114 33.9107 59.0897 34.4845 59.6636C35.0584 60.2375 35.8367 60.5598 36.6483 60.5598H48.7483C49.5599 60.5598 50.3382 60.2375 50.912 59.6636C51.4859 59.0897 51.8083 58.3114 51.8083 57.4998C51.8083 56.6883 51.4859 55.91 50.912 55.3361C50.3382 54.7622 49.5599 54.4398 48.7483 54.4398H36.6483Z" fill="#143282"/>
<path d="M48.7686 61.3496H36.6686C34.5368 61.3496 32.8086 63.0778 32.8086 65.2096C32.8086 67.3414 34.5368 69.0696 36.6686 69.0696H48.7686C50.9004 69.0696 52.6286 67.3414 52.6286 65.2096C52.6286 63.0778 50.9004 61.3496 48.7686 61.3496Z" fill="white"/>
<path d="M48.7683 69.8805H36.6483C35.4124 69.8805 34.2271 69.3896 33.3532 68.5157C32.4793 67.6417 31.9883 66.4565 31.9883 65.2206C31.9883 63.9846 32.4793 62.7993 33.3532 61.9254C34.2271 61.0515 35.4124 60.5605 36.6483 60.5605H48.7483C49.9842 60.5605 51.1695 61.0515 52.0434 61.9254C52.9173 62.7993 53.4083 63.9846 53.4083 65.2206C53.4083 66.4565 52.9173 67.6417 52.0434 68.5157C51.1695 69.3896 49.9842 69.8805 48.7483 69.8805H48.7683ZM36.6483 62.1605C35.8367 62.1605 35.0584 62.4829 34.4845 63.0568C33.9107 63.6307 33.5883 64.409 33.5883 65.2206C33.5883 66.0321 33.9107 66.8104 34.4845 67.3843C35.0584 67.9582 35.8367 68.2805 36.6483 68.2805H48.7483C49.5599 68.2805 50.3382 67.9582 50.912 67.3843C51.4859 66.8104 51.8083 66.0321 51.8083 65.2206C51.8083 64.409 51.4859 63.6307 50.912 63.0568C50.3382 62.4829 49.5599 62.1605 48.7483 62.1605H36.6483Z" fill="#143282"/>
<path d="M37.3189 52.6691C35.9589 45.5891 35.5089 39.6091 32.0989 39.0891C28.6889 38.5691 21.4089 38.9491 16.8789 49.1891" fill="white"/>
<path d="M37.3217 53.4702C37.1348 53.4711 36.9535 53.4067 36.8092 53.2879C36.6649 53.1692 36.5667 53.0037 36.5317 52.8202C36.3217 51.7302 36.1417 50.6702 35.9617 49.6502C35.0317 44.3902 34.3017 40.2302 31.9617 39.8802C29.1117 39.4602 22.0117 39.5302 17.5917 49.5102C17.5494 49.607 17.4883 49.6945 17.412 49.7676C17.3357 49.8407 17.2457 49.898 17.1471 49.9361C17.0486 49.9742 16.9434 49.9925 16.8378 49.9897C16.7322 49.987 16.6281 49.9633 16.5317 49.9202C16.3404 49.8327 16.1906 49.6741 16.1141 49.4782C16.0376 49.2822 16.0403 49.0642 16.1217 48.8702C20.9917 37.8702 28.9917 37.8702 32.2017 38.3002C35.6617 38.8202 36.4817 43.4802 37.5117 49.3702C37.6917 50.3702 37.8817 51.4402 38.0817 52.5202C38.102 52.6232 38.1019 52.7293 38.0813 52.8324C38.0606 52.9354 38.0199 53.0334 37.9614 53.1207C37.9029 53.208 37.8278 53.2829 37.7403 53.3411C37.6529 53.3994 37.5548 53.4398 37.4517 53.4602L37.3217 53.4702Z" fill="#143282"/>
<path d="M36.9689 50.8398L39.1989 62.7298C39.2929 63.2289 39.2875 63.7417 39.183 64.2387C39.0785 64.7357 38.877 65.2072 38.5899 65.6262C38.3029 66.0451 37.936 66.4033 37.5102 66.6802C37.0845 66.9571 36.6083 67.1473 36.1089 67.2398C35.1024 67.4268 34.0629 67.2063 33.219 66.6268C32.3751 66.0473 31.7959 65.1563 31.6089 64.1498L29.3789 52.2598" fill="white"/>
<path d="M35.4006 68.1092C34.313 68.1068 33.2603 67.7249 32.4242 67.0293C31.588 66.3338 31.0209 65.3682 30.8206 64.2992L28.6506 52.4091C28.6256 52.304 28.6222 52.1949 28.6405 52.0884C28.6588 51.9819 28.6985 51.8802 28.7572 51.7895C28.8159 51.6988 28.8924 51.6209 28.9821 51.5605C29.0717 51.5002 29.1726 51.4586 29.2787 51.4383C29.3849 51.418 29.494 51.4194 29.5996 51.4425C29.7052 51.4656 29.805 51.5098 29.893 51.5725C29.9811 51.6352 30.0554 51.715 30.1118 51.8073C30.1681 51.8995 30.2051 52.0022 30.2206 52.1092L32.4406 64.0092C32.6362 64.7592 33.109 65.407 33.7638 65.8219C34.4185 66.2368 35.2062 66.3877 35.968 66.2443C36.7297 66.1008 37.4085 65.6736 37.8675 65.049C38.3264 64.4244 38.5313 63.6489 38.4406 62.8791L36.2206 50.9891C36.191 50.7853 36.2412 50.5779 36.3607 50.4101C36.4802 50.2423 36.6598 50.1271 36.8621 50.0884C37.0645 50.0498 37.2739 50.0907 37.4469 50.2026C37.6198 50.3145 37.743 50.4888 37.7906 50.6892L40.0106 62.5892C40.1235 63.1906 40.1169 63.8084 39.9911 64.4073C39.8653 65.0062 39.6227 65.5744 39.2773 66.0796C38.9318 66.5848 38.4903 67.0169 37.9778 67.3514C37.4654 67.6859 36.8921 67.9162 36.2906 68.0292C35.9969 68.0818 35.699 68.1086 35.4006 68.1092Z" fill="#143282"/>
<path d="M8.33641 74.2852L0.786409 74.2812L0.799928 48.4612L8.34993 48.4652C9.33919 48.4657 10.2877 48.8592 10.9869 49.559C11.686 50.2589 12.0785 51.2079 12.078 52.1971L12.0684 70.5571C12.0678 71.5464 11.6744 72.4949 10.9745 73.1941C10.2746 73.8932 9.32567 74.2857 8.33641 74.2852Z" fill="#143282"/>
<path d="M8.35011 75.0704H0.800089C0.587916 75.0704 0.384445 74.9861 0.234416 74.8361C0.0843866 74.6861 0.000101703 74.4826 0.000101703 74.2704V48.4504C-0.00159179 48.3448 0.017879 48.24 0.0573832 48.1421C0.0968874 48.0442 0.155619 47.9552 0.230097 47.8804C0.3825 47.7318 0.587251 47.6492 0.800089 47.6504H8.35011C9.54899 47.6557 10.6971 48.135 11.5439 48.9836C12.3907 49.8323 12.8675 50.9815 12.8701 52.1804V70.5504C12.8701 71.1448 12.7528 71.7334 12.5251 72.2825C12.2973 72.8315 11.9635 73.3302 11.5427 73.7501C11.1219 74.1699 10.6224 74.5027 10.0729 74.7292C9.52334 74.9558 8.93451 75.0717 8.3401 75.0704H8.35011ZM1.60009 73.4704H8.35011C8.73441 73.4717 9.11517 73.3972 9.47059 73.251C9.82602 73.1049 10.1491 72.89 10.4213 72.6187C10.6935 72.3474 10.9095 72.0251 11.0569 71.6701C11.2042 71.3152 11.2801 70.9347 11.2801 70.5504V52.1804C11.2801 51.405 10.9728 50.6613 10.4255 50.1121C9.87814 49.5629 9.13544 49.2531 8.36009 49.2504H1.6501L1.60009 73.4704Z" fill="#143282"/>
<path d="M5.95844 56.2391C6.82 56.2391 7.51844 55.5407 7.51844 54.6791C7.51844 53.8176 6.82 53.1191 5.95844 53.1191C5.09687 53.1191 4.39844 53.8176 4.39844 54.6791C4.39844 55.5407 5.09687 56.2391 5.95844 56.2391Z" fill="#FDC300"/>
<path d="M5.95886 57.0501C5.54386 57.0518 5.13613 56.9412 4.77887 56.7301C4.28399 56.4422 3.91062 55.9843 3.72831 55.4416C3.54601 54.8988 3.5672 54.3084 3.78795 53.7801C4.00869 53.2519 4.41394 52.8219 4.92819 52.5703C5.44243 52.3186 6.0306 52.2625 6.58316 52.4123C7.13571 52.5622 7.61495 52.9078 7.93161 53.3847C8.24826 53.8617 8.38076 54.4375 8.30438 55.0049C8.228 55.5723 7.94796 56.0926 7.51645 56.4689C7.08493 56.8451 6.53137 57.0517 5.95886 57.0501ZM5.95886 53.9201C5.82404 53.921 5.69168 53.9564 5.5744 54.0229C5.45712 54.0894 5.35885 54.1848 5.28888 54.3001C5.21223 54.4318 5.17639 54.5834 5.18594 54.7355C5.19549 54.8876 5.25 55.0335 5.34253 55.1546C5.43505 55.2758 5.56143 55.3667 5.70569 55.416C5.84994 55.4652 6.00555 55.4705 6.15283 55.4312C6.30011 55.392 6.43244 55.3099 6.53302 55.1953C6.6336 55.0808 6.69791 54.939 6.71783 54.7879C6.73775 54.6367 6.71239 54.4831 6.64492 54.3464C6.57746 54.2097 6.47094 54.0962 6.33886 54.0201C6.22627 53.9552 6.09878 53.9208 5.96887 53.9201H5.95886Z" fill="#FDC300"/>
<path d="M48.7686 69.0801H36.6686C34.5368 69.0801 32.8086 70.8083 32.8086 72.9401C32.8086 75.0719 34.5368 76.8001 36.6686 76.8001H48.7686C50.9004 76.8001 52.6286 75.0719 52.6286 72.9401C52.6286 70.8083 50.9004 69.0801 48.7686 69.0801Z" fill="white"/>
<path d="M48.7683 77.5993H36.6483C35.4124 77.5993 34.2271 77.1083 33.3532 76.2344C32.4793 75.3605 31.9883 74.1752 31.9883 72.9393C31.9883 71.7034 32.4793 70.5181 33.3532 69.6442C34.2271 68.7703 35.4124 68.2793 36.6483 68.2793H48.7483C49.9842 68.2793 51.1695 68.7703 52.0434 69.6442C52.9173 70.5181 53.4083 71.7034 53.4083 72.9393C53.4083 74.1752 52.9173 75.3605 52.0434 76.2344C51.1695 77.1083 49.9842 77.5993 48.7483 77.5993H48.7683ZM36.6483 69.8793C35.8367 69.8793 35.0584 70.2017 34.4845 70.7755C33.9107 71.3494 33.5883 72.1277 33.5883 72.9393C33.5883 73.7509 33.9107 74.5292 34.4845 75.103C35.0584 75.6769 35.8367 75.9993 36.6483 75.9993H48.7483C49.5599 75.9993 50.3382 75.6769 50.912 75.103C51.4859 74.5292 51.8083 73.7509 51.8083 72.9393C51.8083 72.1277 51.4859 71.3494 50.912 70.7755C50.3382 70.2017 49.5599 69.8793 48.7483 69.8793H36.6483Z" fill="#143282"/>
</g>
<defs>
<clipPath id="clip0_772_11155">
<rect width="63.8" height="77.6" fill="white"/>
</clipPath>
</defs>
</svg>
