<svg width="72" height="72" viewBox="0 0 72 72" fill="none" xmlns="http://www.w3.org/2000/svg">
<g clip-path="url(#clip0_772_11059)">
<path d="M28.6408 60.1196L15.1308 65.5696L0.800781 30.0496L14.3108 24.5996L16.4308 29.8496L28.6408 60.1196Z" fill="white"/>
<path d="M15.14 66.3695C14.9806 66.3705 14.8246 66.3233 14.6925 66.2341C14.5605 66.1448 14.4585 66.0177 14.4 65.8695L0.0599747 30.3495C0.0178413 30.2533 -0.00390625 30.1495 -0.00390625 30.0445C-0.00390625 29.9395 0.0178413 29.8356 0.0599747 29.7395C0.0996884 29.643 0.158136 29.5553 0.231941 29.4814C0.305747 29.4076 0.393448 29.3492 0.489975 29.3095L14 23.8595C14.1914 23.7924 14.4011 23.8005 14.5868 23.8822C14.7724 23.9639 14.9201 24.113 15 24.2995L29.34 59.8195C29.3821 59.9156 29.4039 60.0195 29.4039 60.1245C29.4039 60.2295 29.3821 60.3333 29.34 60.4295C29.3003 60.526 29.2418 60.6137 29.168 60.6875C29.0942 60.7613 29.0065 60.8198 28.91 60.8595L15.4 66.3095C15.3173 66.3439 15.2294 66.3642 15.14 66.3695ZM1.81998 30.4895L15.56 64.4895L27.56 59.6395L13.83 25.6395L1.81998 30.4895Z" fill="#143282"/>
<path d="M9.09897 35.0703C8.93959 35.0713 8.78361 35.0241 8.65154 34.9349C8.51947 34.8456 8.41748 34.7185 8.35898 34.5703C8.2943 34.3787 8.30359 34.1699 8.385 33.9849C8.46641 33.7999 8.61408 33.652 8.79898 33.5703L16.639 30.4103C16.8304 30.3432 17.0401 30.3513 17.2258 30.433C17.4114 30.5147 17.5591 30.6638 17.639 30.8503C17.7006 31.0431 17.6888 31.2519 17.6057 31.4366C17.5226 31.6212 17.3742 31.7685 17.189 31.8503L9.39898 35.0003C9.30446 35.0428 9.20256 35.0666 9.09897 35.0703Z" fill="#143282"/>
<path d="M11.6197 41.3192C11.4606 41.3189 11.3052 41.2712 11.1734 41.1821C11.0416 41.093 10.9393 40.9667 10.8797 40.8192C10.8101 40.628 10.817 40.4172 10.8989 40.2309C10.9809 40.0446 11.1316 39.8971 11.3197 39.8192L19.1597 36.6492C19.3523 36.5828 19.5631 36.5923 19.7489 36.6759C19.9347 36.7596 20.0816 36.911 20.1597 37.0992C20.2293 37.2905 20.2224 37.5012 20.1404 37.6875C20.0584 37.8738 19.9077 38.0213 19.7197 38.0992L11.9197 41.2592C11.8245 41.2983 11.7226 41.3187 11.6197 41.3192Z" fill="#143282"/>
<path d="M13.8195 36.7808C13.6345 36.7799 13.4556 36.7149 13.3132 36.597C13.1707 36.479 13.0736 36.3153 13.0382 36.1338C13.0028 35.9523 13.0315 35.7641 13.1192 35.6013C13.207 35.4385 13.3484 35.3111 13.5195 35.2408L17.8595 33.4908C18.0526 33.426 18.2631 33.4373 18.4482 33.5223C18.6333 33.6074 18.7789 33.7599 18.8555 33.9487C18.932 34.1374 18.9336 34.3483 18.8601 34.5382C18.7865 34.7282 18.6432 34.8829 18.4595 34.9708L14.1195 36.7208C14.0243 36.7599 13.9224 36.7803 13.8195 36.7808Z" fill="#143282"/>
<path d="M11.3412 30.5301C11.1818 30.5311 11.0258 30.4839 10.8937 30.3947C10.7617 30.3054 10.6597 30.1783 10.6012 30.0301C10.5365 29.8386 10.5458 29.6298 10.6272 29.4447C10.7086 29.2597 10.8563 29.1118 11.0412 29.0301L15.3712 27.2801C15.5638 27.2136 15.7746 27.2232 15.9604 27.3068C16.1462 27.3904 16.2932 27.5418 16.3712 27.7301C16.4408 27.9214 16.4339 28.1321 16.3519 28.3184C16.2699 28.5047 16.1192 28.6522 15.9312 28.7301L11.6012 30.4801C11.5179 30.5111 11.43 30.528 11.3412 30.5301Z" fill="#143282"/>
<path d="M16.3898 43.0005C16.2049 42.9996 16.0259 42.9346 15.8835 42.8166C15.741 42.6987 15.6439 42.535 15.6085 42.3535C15.5731 42.1719 15.6018 41.9837 15.6895 41.8209C15.7773 41.6581 15.9187 41.5307 16.0898 41.4605L20.4198 39.7105C20.6174 39.6309 20.8385 39.6331 21.0345 39.7166C21.2304 39.8 21.3852 39.9579 21.4648 40.1555C21.5444 40.3531 21.5422 40.5742 21.4587 40.7701C21.3753 40.9661 21.2174 41.1209 21.0198 41.2005L16.6798 43.0005C16.5837 43.0156 16.4859 43.0156 16.3898 43.0005Z" fill="#143282"/>
<path d="M59.4236 28.5207L41.875 67.459L49.1503 70.7378L66.6989 31.7995L59.4236 28.5207Z" fill="white"/>
<path d="M49.151 71.5407C49.0372 71.5417 48.9246 71.5178 48.821 71.4707L41.551 68.1907C41.3702 68.1055 41.2284 67.955 41.1542 67.7694C41.0799 67.5838 41.0788 67.377 41.151 67.1907L58.701 28.2007C58.7431 28.1035 58.8048 28.016 58.8822 27.9438C58.9596 27.8715 59.0511 27.816 59.151 27.7807C59.2471 27.7385 59.351 27.7168 59.456 27.7168C59.561 27.7168 59.6648 27.7385 59.761 27.7807L67.031 31.0607C67.127 31.1039 67.2134 31.1656 67.2855 31.2423C67.3576 31.319 67.4138 31.4092 67.451 31.5077C67.4881 31.6061 67.5055 31.711 67.502 31.8162C67.4986 31.9214 67.4745 32.0248 67.431 32.1207L49.881 71.0507C49.839 71.1463 49.7786 71.2326 49.703 71.3047C49.6275 71.3768 49.5384 71.4332 49.441 71.4707C49.3501 71.5135 49.2514 71.5373 49.151 71.5407ZM42.941 67.0607L48.751 69.6907L65.651 32.2107L59.821 29.5907L42.941 67.0607Z" fill="#143282"/>
<path d="M31.0919 14.5293L39.2619 55.9993L28.0819 58.1993L19.9219 16.7293C23.7887 17.366 27.7553 16.5847 31.0919 14.5293Z" fill="#143282"/>
<path d="M28.0814 59.0006C27.925 59.0023 27.7717 58.9571 27.6413 58.8706C27.4656 58.7517 27.3435 58.5686 27.3014 58.3606L19.1313 16.8906C19.1074 16.7625 19.1139 16.6306 19.1504 16.5055C19.1869 16.3804 19.2523 16.2657 19.3413 16.1706C19.4344 16.0808 19.5467 16.0134 19.6698 15.9735C19.7928 15.9336 19.9233 15.9224 20.0514 15.9406C21.8743 16.2491 23.7382 16.222 25.5514 15.8606C27.364 15.5059 29.0982 14.8285 30.6713 13.8606C30.7809 13.7915 30.9058 13.7507 31.035 13.742C31.1642 13.7333 31.2935 13.7569 31.4113 13.8106C31.5288 13.8622 31.6325 13.9407 31.7142 14.0397C31.7958 14.1387 31.8531 14.2554 31.8813 14.3806L40.0414 55.8006C40.0631 55.9038 40.064 56.0103 40.044 56.1138C40.0239 56.2174 39.9833 56.3159 39.9246 56.4035C39.8659 56.4911 39.7902 56.566 39.7021 56.6239C39.6139 56.6818 39.5151 56.7215 39.4113 56.7406L28.2413 58.9506L28.0814 59.0006ZM20.9213 17.6706L28.7113 57.2106L38.3214 55.3206L30.5213 15.7806C27.5757 17.3377 24.2374 17.995 20.9213 17.6706Z" fill="#143282"/>
<path d="M26.8209 7.44953C25.9994 7.98109 25.0824 8.34789 24.1209 8.52953C23.1597 8.71424 22.1721 8.71424 21.2109 8.52953L22.6009 0.769531L26.8209 7.44953Z" fill="#143282"/>
<path d="M22.5813 9.48075C22.0679 9.48468 21.5554 9.43779 21.0513 9.34075C20.9487 9.32267 20.8507 9.28448 20.763 9.22839C20.6752 9.17229 20.5994 9.09939 20.5399 9.01389C20.4804 8.92838 20.4385 8.83196 20.4164 8.73017C20.3943 8.62837 20.3926 8.52322 20.4113 8.42075L21.8213 0.660754C21.8497 0.502003 21.9248 0.355335 22.037 0.239535C22.1493 0.123735 22.2935 0.0440731 22.4513 0.0107521C22.6098 -0.0200175 22.7739 -0.00209509 22.9221 0.062159C23.0702 0.126413 23.1955 0.233991 23.2813 0.370753L27.4813 7.00075C27.5943 7.17874 27.6325 7.39413 27.5876 7.60012C27.5426 7.8061 27.4182 7.98602 27.2413 8.10075C26.326 8.68649 25.3081 9.09365 24.2413 9.30075C23.695 9.41347 23.1391 9.47375 22.5813 9.48075ZM22.1313 7.87075C22.7406 7.9103 23.3525 7.86996 23.9513 7.75075C24.5498 7.63013 25.131 7.43529 25.6813 7.17075L23.0013 3.00075L22.1313 7.87075Z" fill="#143282"/>
<path d="M31.0003 13.9995L31.0903 14.4895C27.7537 16.5449 23.7871 17.3261 19.9203 16.6895L19.8203 16.2095L21.1903 8.51945C22.1515 8.70417 23.1391 8.70417 24.1003 8.51945C25.0618 8.33782 25.9788 7.97101 26.8003 7.43945L31.0003 13.9995Z" fill="white"/>
<path d="M22.5617 17.7509C21.6435 17.7516 20.7269 17.6746 19.8217 17.5209C19.6629 17.4925 19.5163 17.4174 19.4005 17.3052C19.2847 17.193 19.205 17.0487 19.1717 16.8909L19.0817 16.4009C19.0665 16.3049 19.0665 16.207 19.0817 16.1109L20.4617 8.42092C20.4774 8.31602 20.5148 8.21556 20.5717 8.126C20.6285 8.03644 20.7034 7.95977 20.7917 7.90092C20.878 7.84031 20.9755 7.79758 21.0785 7.77526C21.1816 7.75293 21.2881 7.75146 21.3917 7.77092C22.254 7.93455 23.1394 7.93455 24.0017 7.77092C24.8633 7.59029 25.6839 7.2512 26.4217 6.77092C26.5087 6.71214 26.6069 6.67202 26.7102 6.65308C26.8134 6.63415 26.9195 6.63682 27.0217 6.66092C27.1257 6.68249 27.2243 6.72455 27.3119 6.78464C27.3994 6.84473 27.4742 6.92165 27.5317 7.01092L31.7217 13.6109C31.7744 13.6935 31.8117 13.785 31.8317 13.8809L31.9317 14.3609C31.9622 14.5219 31.9432 14.6884 31.8771 14.8384C31.8111 14.9884 31.7011 15.1148 31.5617 15.2009C28.8581 16.8723 25.7401 17.7523 22.5617 17.7409V17.7509ZM20.6717 16.0009C22.2976 16.201 23.945 16.1403 25.5517 15.8209C27.1576 15.5016 28.7032 14.9313 30.1317 14.1309L26.5417 8.49092C25.8209 8.8562 25.0539 9.12195 24.2617 9.28092C23.4686 9.43812 22.6571 9.4819 21.8517 9.41092L20.6717 16.0009Z" fill="#143282"/>
<path d="M33.6685 57.8492C33.4816 57.8502 33.3003 57.7857 33.156 57.667C33.0117 57.5483 32.9135 57.3828 32.8785 57.1992L24.8785 16.7992C24.8581 16.6961 24.8582 16.59 24.8789 16.487C24.8995 16.384 24.9402 16.286 24.9987 16.1987C25.0572 16.1114 25.1324 16.0365 25.2198 15.9782C25.3073 15.92 25.4054 15.8795 25.5085 15.8592C25.7164 15.8208 25.9311 15.8651 26.1067 15.9828C26.2824 16.1006 26.405 16.2823 26.4485 16.4892L34.4485 56.8992C34.4702 57.0018 34.471 57.1077 34.4508 57.2106C34.4306 57.3135 34.3899 57.4113 34.3311 57.4981C34.2723 57.5849 34.1966 57.659 34.1085 57.7159C34.0204 57.7728 33.9218 57.8113 33.8185 57.8292L33.6685 57.8492Z" fill="#FCC200"/>
<path d="M45.1 56.3291L40.01 56.0891C40.01 56.0891 38.01 32.4991 40.01 19.8691C41.1252 20.8943 42.5666 21.4928 44.08 21.5591C45.5997 21.6302 47.0964 21.1667 48.31 20.2491C49.01 33.1691 45.1 56.3291 45.1 56.3291Z" fill="white"/>
<path d="M45.0983 57.1193L40.0083 56.8893C39.8153 56.8783 39.6327 56.7987 39.4933 56.6648C39.354 56.5309 39.267 56.3517 39.2483 56.1593C39.2483 55.9193 37.2483 32.3293 39.2483 19.7493C39.2702 19.6062 39.3305 19.4717 39.4228 19.3602C39.5151 19.2487 39.636 19.1643 39.7725 19.116C39.909 19.0678 40.0561 19.0575 40.198 19.0863C40.3399 19.115 40.4713 19.1817 40.5783 19.2793C41.5556 20.1733 42.8152 20.697 44.1383 20.7593C45.4624 20.8237 46.7664 20.4162 47.8183 19.6093C47.9344 19.5223 48.0717 19.468 48.2159 19.4521C48.3602 19.4363 48.5061 19.4595 48.6383 19.5193C48.7706 19.5826 48.8838 19.6797 48.9663 19.8009C49.0489 19.9221 49.0979 20.063 49.1083 20.2093C49.8183 33.0693 45.9483 56.2093 45.9083 56.4593C45.8748 56.6482 45.7746 56.8187 45.6259 56.9398C45.4772 57.061 45.29 57.1247 45.0983 57.1193ZM40.7483 55.3193L44.4283 55.4893C45.0383 51.6793 47.8983 33.2193 47.5483 21.6393C46.4475 22.1747 45.2303 22.4259 44.0075 22.37C42.7848 22.3141 41.5956 21.9529 40.5483 21.3193C39.1083 32.6893 40.4483 51.4793 40.7483 55.3193Z" fill="#143282"/>
<path d="M48.2883 20.2505C47.0747 21.1681 45.578 21.6316 44.0583 21.5605C42.5449 21.4942 41.1035 20.8957 39.9883 19.8705C40.2054 17.6061 40.8862 15.4106 41.9883 13.4205C42.9883 12.0205 46.3483 12.0305 47.0783 13.6605C47.8392 15.7763 48.248 18.0025 48.2883 20.2505Z" fill="white"/>
<path d="M44.3613 22.3698H44.0212C42.3222 22.2921 40.7046 21.6196 39.4512 20.4698C39.3538 20.3816 39.2799 20.2705 39.2363 20.1465C39.1926 20.0225 39.1806 19.8896 39.2012 19.7598C39.7012 16.5698 40.4012 14.3498 41.3512 12.9798C41.7935 12.4643 42.3597 12.0698 42.9965 11.8336C43.6333 11.5974 44.3198 11.5273 44.9912 11.6298C45.5715 11.6417 46.1384 11.806 46.6351 12.1061C47.1318 12.4063 47.5408 12.8317 47.8213 13.3398C48.626 15.5423 49.0521 17.8651 49.0812 20.2098C49.086 20.3405 49.0594 20.4704 49.0037 20.5886C48.9481 20.7069 48.8649 20.8102 48.7613 20.8898C47.494 21.8475 45.9496 22.3669 44.3613 22.3698ZM40.8213 19.5598C41.7566 20.2884 42.8955 20.7078 44.08 20.7598C45.2644 20.8117 46.4357 20.4937 47.4313 19.8498C47.3899 17.8492 47.0183 15.8692 46.3313 13.9898C46.1625 13.7446 45.9349 13.5456 45.6694 13.4111C45.4038 13.2766 45.1088 13.2108 44.8112 13.2198C44.4231 13.1534 44.0249 13.1784 43.6481 13.293C43.2714 13.4076 42.9266 13.6085 42.6413 13.8798C41.6572 15.6308 41.0381 17.563 40.8213 19.5598Z" fill="#143282"/>
<path d="M51.3181 13.36C50.7616 14.6106 49.8723 15.6842 48.7472 16.4637C47.6221 17.2431 46.3044 17.6985 44.9381 17.78C39.6981 18.16 36.5381 14.9 37.3381 11.43C38.7481 5.32001 47.8981 10.85 46.7881 1.43001C46.4181 -1.58999 54.0081 6.33001 51.3181 13.36Z" fill="#143282"/>
<path d="M44.1202 18.61C42.938 18.6689 41.7571 18.4704 40.659 18.0285C39.561 17.5865 38.5719 16.9115 37.7601 16.05C37.1899 15.4047 36.7832 14.6318 36.5744 13.7964C36.3655 12.961 36.3607 12.0877 36.5601 11.25C37.2901 8.08 39.8801 7.53 41.9601 7.09C44.6201 6.52 46.5301 6.09 45.9601 1.57C45.8885 1.29595 45.9084 1.006 46.0167 0.744261C46.125 0.482524 46.3158 0.263322 46.5601 0.120001C47.1201 -0.169999 47.8102 0.0500022 48.6202 0.770002C50.6202 2.51 54.1302 8.16 52.0302 13.65C51.42 15.0403 50.4381 16.2353 49.1924 17.1034C47.9468 17.9715 46.4857 18.479 44.9701 18.57C44.7001 18.59 44.4102 18.61 44.1202 18.61ZM47.6401 2C48.0501 7.41 44.8701 8.09 42.2901 8.63C40.0201 9.11 38.6002 9.52 38.1202 11.63C37.9794 12.2234 37.9831 12.8419 38.131 13.4335C38.2789 14.0252 38.5667 14.5727 38.9701 15.03C39.7335 15.7977 40.6645 16.3778 41.69 16.7249C42.7155 17.0719 43.8075 17.1764 44.8801 17.03C46.0945 16.9624 47.2671 16.5631 48.2704 15.8755C49.2736 15.1879 50.0691 14.2383 50.5701 13.13C51.8101 9.89 50.5701 6.65 49.7501 5.01C49.2219 3.89465 48.5085 2.8769 47.6401 2Z" fill="#143282"/>
<path d="M67.8202 29.3596C67.4153 30.1 67.0644 30.8687 66.7702 31.6596C66.7571 31.701 66.7404 31.7412 66.7202 31.7796C66.1902 32.9596 64.1302 33.1796 62.1202 32.2796C60.1102 31.3796 58.9202 29.6796 59.4502 28.4996C59.4744 28.4654 59.4945 28.4285 59.5102 28.3896C59.9057 27.648 60.2401 26.8755 60.5102 26.0796C60.8102 25.0796 61.7402 20.9996 61.7402 20.9996L70.2902 14.0996L70.5402 19.5796L70.7802 25.0696C70.7802 25.0696 68.3202 28.5096 67.8202 29.3596Z" fill="#FDC300"/>
<path d="M61.8202 33C62.6552 33.4017 63.5643 33.6264 64.4902 33.66C65.0812 33.7281 65.6791 33.6191 66.2079 33.3467C66.7368 33.0742 67.1727 32.6507 67.4602 32.13V32.06V31.97C67.7426 31.221 68.0767 30.4925 68.4602 29.79C68.9902 28.98 71.4602 25.56 71.4602 25.56C71.5677 25.4162 71.6208 25.2391 71.6102 25.06L71.1202 14.06C71.1142 13.9125 71.0669 13.7698 70.9838 13.6478C70.9008 13.5259 70.7852 13.4296 70.6502 13.37C70.5152 13.3098 70.3662 13.2883 70.2197 13.3077C70.0732 13.3271 69.9349 13.3868 69.8202 13.48L61.1902 20.41C61.0497 20.5248 60.9512 20.6831 60.9102 20.86C60.9002 20.86 59.9802 24.96 59.7002 25.86C59.4271 26.6224 59.0927 27.3615 58.7002 28.07V28.14V28.22C58.5201 28.6819 58.4678 29.1839 58.5487 29.6731C58.6297 30.1623 58.8409 30.6206 59.1602 31C59.8564 31.8882 60.7737 32.5779 61.8202 33Z" fill="#143282"/>
<path d="M64.7306 27.29C64.6167 27.292 64.5039 27.268 64.4006 27.22C64.3037 27.1778 64.2163 27.1167 64.1435 27.0402C64.0707 26.9636 64.014 26.8733 63.9767 26.7745C63.9394 26.6756 63.9223 26.5703 63.9264 26.4648C63.9305 26.3592 63.9557 26.2556 64.0006 26.16L69.5806 13.77C69.6239 13.6741 69.6857 13.5877 69.7625 13.5157C69.8392 13.4437 69.9293 13.3876 70.0278 13.3504C70.1262 13.3133 70.231 13.2959 70.3361 13.2992C70.4413 13.3026 70.5447 13.3266 70.6406 13.37C70.7365 13.4133 70.8229 13.4751 70.8948 13.5518C70.9668 13.6285 71.023 13.7187 71.0601 13.8171C71.0973 13.9155 71.1147 14.0203 71.1113 14.1255C71.108 14.2306 71.0839 14.3341 71.0406 14.43L65.4606 26.82C65.3951 26.9588 65.292 27.0764 65.1629 27.1595C65.0339 27.2426 64.8841 27.2878 64.7306 27.29Z" fill="#143282"/>
<path d="M70.8208 62.3604C70.8221 63.4692 70.6047 64.5673 70.181 65.5918C69.7573 66.6164 69.1357 67.5474 68.3517 68.3313C67.5677 69.1153 66.6368 69.737 65.6122 70.1607C64.5876 70.5843 63.4895 70.8018 62.3808 70.8004H9.24078C7.00235 70.8004 4.8556 69.9112 3.2728 68.3284C1.68999 66.7456 0.800781 64.5989 0.800781 62.3604C0.800781 60.122 1.68999 57.9753 3.2728 56.3925C4.8556 54.8096 7.00235 53.9204 9.24078 53.9204H12.0108C12.0108 53.7604 12.0108 53.5904 12.0108 53.4204C12.0192 51.1561 12.6644 48.9398 13.8726 47.0248C15.0809 45.1097 16.8035 43.5732 18.8435 42.5907C20.8836 41.6082 23.1589 41.2194 25.4095 41.4687C27.6601 41.7179 29.7952 42.5953 31.5708 44.0004C33.1264 40.1723 36.0714 37.0736 39.8154 35.3254C43.5595 33.5771 47.826 33.3085 51.7597 34.5734C55.6934 35.8383 59.0038 38.5432 61.0273 42.1459C63.0507 45.7487 63.6378 49.9831 62.6708 54.0004C64.8456 54.0726 66.9083 54.983 68.4273 56.5412C69.9463 58.0993 70.8039 60.1845 70.8208 62.3604Z" fill="white"/>
<path d="M62.36 71.6005H9.24C6.7894 71.6005 4.43917 70.627 2.70633 68.8942C0.973493 67.1614 0 64.8111 0 62.3605C0 59.9099 0.973493 57.5597 2.70633 55.8269C4.43917 54.094 6.7894 53.1205 9.24 53.1205H11.24C11.3209 49.7603 12.7122 46.5648 15.1168 44.2162C17.5214 41.8677 20.7488 40.5522 24.11 40.5505C26.6697 40.5379 29.1731 41.3014 31.29 42.7405C32.978 39.235 35.8065 36.4067 39.3121 34.719C42.8178 33.0313 46.7927 32.5843 50.5856 33.4512C54.3786 34.3181 57.7646 36.4475 60.189 39.4905C62.6135 42.5335 63.9325 46.3098 63.93 50.2005C63.9335 51.2063 63.8465 52.2104 63.67 53.2005C65.9848 53.526 68.0902 54.7167 69.562 56.5327C71.0339 58.3487 71.7627 60.6551 71.6016 62.9871C71.4406 65.3191 70.4017 67.5035 68.6942 69.0999C66.9867 70.6964 64.7376 71.5864 62.4 71.5905L62.36 71.6005ZM9.24 54.7205C7.21374 54.7205 5.27049 55.5255 3.83771 56.9582C2.40493 58.391 1.6 60.3343 1.6 62.3605C1.6 64.3868 2.40493 66.33 3.83771 67.7628C5.27049 69.1956 7.21374 70.0005 9.24 70.0005H62.36C64.3448 69.975 66.2418 69.178 67.6493 67.7782C69.0567 66.3785 69.8641 64.4859 69.9005 62.5012C69.9369 60.5166 69.1994 58.5957 67.8442 57.1452C66.489 55.6948 64.6226 54.8288 62.64 54.7305C62.5193 54.7288 62.4007 54.6994 62.2931 54.6446C62.1855 54.5898 62.092 54.5112 62.0196 54.4146C61.9471 54.3181 61.8978 54.2062 61.8753 54.0876C61.8529 53.969 61.8579 53.8469 61.89 53.7305C62.7798 49.918 62.2015 45.9101 60.2704 42.5045C58.3392 39.0989 55.1967 36.5452 51.4681 35.3515C47.7395 34.1578 43.6982 34.4116 40.1482 36.0624C36.5982 37.7133 33.7999 40.6401 32.31 44.2605C32.2627 44.3754 32.1892 44.4777 32.0955 44.5593C32.0018 44.6409 31.8903 44.6995 31.77 44.7305C31.6511 44.7592 31.5273 44.7607 31.4078 44.7347C31.2883 44.7087 31.1762 44.656 31.08 44.5805C29.0942 42.9898 26.6244 42.1253 24.08 42.1305C21.0909 42.1385 18.227 43.3315 16.1161 45.4479C14.0053 47.5643 12.82 50.4314 12.82 53.4205C12.82 53.5805 12.82 53.7305 12.82 53.8805C12.8246 53.9886 12.8075 54.0964 12.7697 54.1978C12.7319 54.2991 12.6742 54.3919 12.6 54.4705C12.5257 54.5499 12.4359 54.613 12.3361 54.656C12.2363 54.699 12.1287 54.721 12.02 54.7205H9.24Z" fill="#143282"/>
<path d="M70.8197 62.3603C70.8211 63.469 70.6037 64.5671 70.18 65.5917C69.7563 66.6163 69.1346 67.5472 68.3507 68.3312C67.5667 69.1152 66.6357 69.7369 65.6111 70.1605C64.5866 70.5842 63.4885 70.8016 62.3797 70.8003H9.23974C7.56732 70.8071 5.93059 70.3168 4.53729 69.3918C3.14399 68.4667 2.05692 67.1486 1.41406 65.6046C0.771198 64.0607 0.601524 62.3605 0.926572 60.72C1.25162 59.0795 2.05674 57.5725 3.23974 56.3903C4.13031 55.5006 5.20573 54.8178 6.38974 54.3903C10.5797 59.4803 18.6297 62.9103 27.8697 62.9103C41.4197 62.9103 52.4097 55.5203 52.4097 46.4003C52.4097 41.4703 49.1997 37.0403 44.1097 34.0203C44.9633 33.8876 45.8259 33.8207 46.6897 33.8203C49.155 33.8263 51.5872 34.3876 53.8058 35.4626C56.0243 36.5376 57.9721 38.0987 59.5045 40.0298C61.0369 41.9609 62.1145 44.2125 62.6573 46.6173C63.2001 49.022 63.1941 51.5182 62.6397 53.9203C64.8336 53.9854 66.9156 54.9036 68.4432 56.4797C69.9707 58.0558 70.8233 60.1655 70.8197 62.3603Z" fill="#D2E2F2"/>
<path d="M62.36 71.6005H9.24C6.7894 71.6005 4.43917 70.627 2.70633 68.8942C0.973493 67.1614 0 64.8111 0 62.3605C0 59.9099 0.973493 57.5597 2.70633 55.8269C4.43917 54.094 6.7894 53.1205 9.24 53.1205H11.24C11.3209 49.7603 12.7122 46.5648 15.1168 44.2162C17.5214 41.8677 20.7488 40.5522 24.11 40.5505C26.6697 40.5379 29.1731 41.3014 31.29 42.7405C32.978 39.235 35.8065 36.4067 39.3121 34.719C42.8178 33.0313 46.7927 32.5843 50.5856 33.4512C54.3786 34.3181 57.7646 36.4475 60.189 39.4905C62.6135 42.5335 63.9325 46.3098 63.93 50.2005C63.9335 51.2063 63.8465 52.2104 63.67 53.2005C65.9848 53.526 68.0902 54.7167 69.562 56.5327C71.0339 58.3487 71.7627 60.6551 71.6016 62.9871C71.4406 65.3191 70.4017 67.5035 68.6942 69.0999C66.9867 70.6964 64.7376 71.5864 62.4 71.5905L62.36 71.6005ZM9.24 54.7205C7.21374 54.7205 5.27049 55.5255 3.83771 56.9582C2.40493 58.391 1.6 60.3343 1.6 62.3605C1.6 64.3868 2.40493 66.33 3.83771 67.7628C5.27049 69.1956 7.21374 70.0005 9.24 70.0005H62.36C64.3448 69.975 66.2418 69.178 67.6493 67.7782C69.0567 66.3785 69.8641 64.4859 69.9005 62.5012C69.9369 60.5166 69.1994 58.5957 67.8442 57.1452C66.489 55.6948 64.6226 54.8288 62.64 54.7305C62.5193 54.7288 62.4007 54.6994 62.2931 54.6446C62.1855 54.5898 62.092 54.5112 62.0196 54.4146C61.9471 54.3181 61.8978 54.2062 61.8753 54.0876C61.8529 53.969 61.8579 53.8469 61.89 53.7305C62.7798 49.918 62.2015 45.9101 60.2704 42.5045C58.3392 39.0989 55.1967 36.5452 51.4681 35.3515C47.7395 34.1578 43.6982 34.4116 40.1482 36.0624C36.5982 37.7133 33.7999 40.6401 32.31 44.2605C32.2627 44.3754 32.1892 44.4777 32.0955 44.5593C32.0018 44.6409 31.8903 44.6995 31.77 44.7305C31.6511 44.7592 31.5273 44.7607 31.4078 44.7347C31.2883 44.7087 31.1762 44.656 31.08 44.5805C29.0942 42.9898 26.6244 42.1253 24.08 42.1305C21.0909 42.1385 18.227 43.3315 16.1161 45.4479C14.0053 47.5643 12.82 50.4314 12.82 53.4205C12.82 53.5805 12.82 53.7305 12.82 53.8805C12.8246 53.9886 12.8075 54.0964 12.7697 54.1978C12.7319 54.2991 12.6742 54.3919 12.6 54.4705C12.5257 54.5499 12.4359 54.613 12.3361 54.656C12.2363 54.699 12.1287 54.721 12.02 54.7205H9.24Z" fill="#143282"/>
</g>
<defs>
<clipPath id="clip0_772_11059">
<rect width="71.6" height="71.6" fill="white"/>
</clipPath>
</defs>
</svg>
