<svg width="66" height="59" viewBox="0 0 66 59" fill="none" xmlns="http://www.w3.org/2000/svg">
<g clip-path="url(#clip0_772_11121)">
<path d="M10.4188 57.3008H16.3388C16.5486 57.3008 16.7188 57.1306 16.7188 56.9208V43.6608C16.7188 43.4509 16.5486 43.2808 16.3388 43.2808H10.4188C10.2089 43.2808 10.0388 43.4509 10.0388 43.6608L10.0388 56.9208C10.0388 57.1306 10.2089 57.3008 10.4188 57.3008Z" fill="#D2E2F2"/>
<path d="M59.7008 57.2207C59.7008 56.9554 59.5954 56.7011 59.4079 56.5136C59.2204 56.326 58.966 56.2207 58.7008 56.2207H5.14078C4.34513 56.2207 3.58208 55.9046 3.01947 55.342C2.45686 54.7794 2.14078 54.0163 2.14078 53.2207V47.1207C2.14078 46.325 2.45686 45.562 3.01947 44.9993C3.58208 44.4367 4.34513 44.1207 5.14078 44.1207H57.0208C58.1002 44.1207 59.1354 43.6919 59.8987 42.9286C60.662 42.1653 61.0908 41.1301 61.0908 40.0507V33.8007C61.0908 32.7212 60.662 31.686 59.8987 30.9227C59.1354 30.1595 58.1002 29.7307 57.0208 29.7307H51.6008C51.8182 29.1585 51.9332 28.5526 51.9408 27.9407V19.3507C51.9408 19.0854 51.8354 18.8311 51.6479 18.6436C51.4604 18.456 51.206 18.3507 50.9408 18.3507C50.6755 18.3507 50.4212 18.456 50.2337 18.6436C50.0461 18.8311 49.9408 19.0854 49.9408 19.3507V27.9407C49.9458 28.7089 49.6559 29.4498 49.1308 30.0107C48.8458 30.3064 48.5062 30.5441 48.1308 30.7107L34.1308 36.3707C31.9273 37.2609 29.4643 37.2609 27.2608 36.3707L13.2608 30.7107C12.6975 30.4887 12.2146 30.1015 11.8755 29.6C11.5364 29.0984 11.357 28.5061 11.3608 27.9007V16.0307L18.4808 18.4407V26.4407C18.4808 26.7059 18.5861 26.9602 18.7737 27.1478C18.9612 27.3353 19.2156 27.4407 19.4808 27.4407C19.746 27.4407 20.0004 27.3353 20.1879 27.1478C20.3754 26.9602 20.4808 26.7059 20.4808 26.4407V19.1307L29.9508 22.3407C30.4037 22.5008 30.8978 22.5008 31.3508 22.3407L42.8608 18.4407V22.6707C42.1768 22.9071 41.5989 23.3784 41.2295 24.0007C40.8601 24.6229 40.7232 25.356 40.8431 26.0697C40.963 26.7833 41.3319 27.4314 41.8844 27.8988C42.4369 28.3662 43.1371 28.6226 43.8608 28.6226C44.5844 28.6226 45.2847 28.3662 45.8372 27.8988C46.3896 27.4314 46.7586 26.7833 46.8785 26.0697C46.9984 25.356 46.8615 24.6229 46.4921 24.0007C46.1227 23.3784 45.5447 22.9071 44.8608 22.6707V17.7507L59.7308 12.7507C60.1528 12.6291 60.5231 12.372 60.7845 12.019C61.0459 11.6661 61.1838 11.2369 61.177 10.7977C61.1701 10.3586 61.019 9.93387 60.7467 9.5892C60.4745 9.24453 60.0964 8.99905 59.6708 8.89066L31.2408 0.220661C30.8259 0.100926 30.3856 0.100926 29.9708 0.220661L1.56079 8.89066C1.15877 9.01231 0.805233 9.25745 0.550354 9.5913C0.295475 9.92516 0.152176 10.3308 0.140778 10.7507C0.120581 11.1918 0.24696 11.6273 0.500214 11.989C0.753467 12.3508 1.11935 12.6186 1.54077 12.7507L9.29077 15.3807V27.9807C9.29352 28.5931 9.40876 29.1999 9.63077 29.7707H9.26077C8.46512 29.7707 7.70207 30.0867 7.13947 30.6493C6.57686 31.212 6.26077 31.975 6.26077 32.7707V35.8607C6.26077 36.1259 6.36614 36.3802 6.55368 36.5678C6.74122 36.7553 6.99556 36.8607 7.26077 36.8607C7.52599 36.8607 7.78036 36.7553 7.9679 36.5678C8.15543 36.3802 8.26077 36.1259 8.26077 35.8607V32.7507C8.26077 32.4854 8.36614 32.2311 8.55368 32.0436C8.74122 31.856 8.99556 31.7507 9.26077 31.7507H11.0408C11.464 32.1155 11.9435 32.4093 12.4608 32.6207L26.4608 38.2707C29.1512 39.3609 32.1604 39.3609 34.8508 38.2707L42.8508 35.0407V38.8707C42.8508 39.1359 42.9561 39.3902 43.1437 39.5778C43.3312 39.7653 43.5856 39.8707 43.8508 39.8707C44.116 39.8707 44.3704 39.7653 44.5579 39.5778C44.7454 39.3902 44.8508 39.1359 44.8508 38.8707V34.8207C44.8499 34.6353 44.7942 34.4544 44.6908 34.3007L48.8108 32.6407C49.3238 32.427 49.7997 32.1333 50.2208 31.7707H57.0608C57.5912 31.7707 58.0999 31.9814 58.475 32.3564C58.8501 32.7315 59.0608 33.2402 59.0608 33.7707V39.8807C59.0608 40.4111 58.8501 40.9198 58.475 41.2949C58.0999 41.6699 57.5912 41.8807 57.0608 41.8807H5.14078C2.33078 41.8807 0.0607812 45.3007 0.0507812 48.1107V54.2107C0.0507812 57.0207 2.33078 58.1507 5.14078 58.2107H58.6608C58.7946 58.216 58.9281 58.1945 59.0534 58.1472C59.1788 58.1 59.2933 58.0281 59.3903 57.9358C59.4873 57.8434 59.5648 57.7326 59.6181 57.6097C59.6714 57.4869 59.6995 57.3546 59.7008 57.2207ZM43.8308 26.5607C43.5656 26.5607 43.3112 26.4553 43.1237 26.2678C42.9361 26.0802 42.8308 25.8259 42.8308 25.5607C42.8308 25.2954 42.9361 25.0411 43.1237 24.8536C43.3112 24.666 43.5656 24.5607 43.8308 24.5607C44.096 24.5607 44.3503 24.666 44.5379 24.8536C44.7254 25.0411 44.8308 25.2954 44.8308 25.5607C44.8308 25.8259 44.7254 26.0802 44.5379 26.2678C44.3503 26.4553 44.096 26.5607 43.8308 26.5607ZM2.14078 10.7907L30.6408 2.12066L59.0608 10.7807L43.5808 16.0307L31.0808 9.30066C30.8434 9.16805 30.5631 9.13517 30.3015 9.20925C30.0399 9.28332 29.8184 9.45829 29.6858 9.69566C29.5532 9.93303 29.5203 10.2134 29.5944 10.475C29.6684 10.7366 29.8434 10.9581 30.0808 11.0907L40.9108 16.9207L30.6108 20.4207H30.5208L2.14078 10.7907Z" fill="#143282"/>
<path d="M5.13876 58.3005H58.6888L58.6588 58.3605C58.9505 58.3605 59.2303 58.2446 59.4366 58.0383C59.6429 57.832 59.7588 57.5522 59.7588 57.2605C59.7588 56.9687 59.6429 56.6889 59.4366 56.4826C59.2303 56.2763 58.9505 56.1605 58.6588 56.1605H5.13876C4.34311 56.1605 3.58007 55.8444 3.01746 55.2818C2.45485 54.7192 2.13876 53.9561 2.13876 53.1605V47.0605C2.13876 46.2648 2.45485 45.5017 3.01746 44.9391C3.58007 44.3765 4.34311 44.0605 5.13876 44.0605H56.9588C58.0586 44.0578 59.1126 43.6197 59.8904 42.842C60.6681 42.0643 61.1061 41.0103 61.1088 39.9105V33.8005C61.1088 33.2555 61.0014 32.7158 60.7929 32.2123C60.5843 31.7088 60.2786 31.2513 59.8932 30.866C59.5079 30.4806 59.0504 30.1749 58.5469 29.9664C58.0434 29.7578 57.5038 29.6505 56.9588 29.6505H51.6488C51.8469 29.1018 51.9517 28.5238 51.9588 27.9405V19.3505C51.9588 19.0587 51.8429 18.7789 51.6366 18.5726C51.4303 18.3663 51.1505 18.2505 50.8588 18.2505C50.567 18.2505 50.2872 18.3663 50.0809 18.5726C49.8746 18.7789 49.7588 19.0587 49.7588 19.3505V27.9405C49.7594 28.6833 49.4769 29.3986 48.9688 29.9405C48.686 30.2363 48.3457 30.4711 47.9688 30.6305L33.9688 36.2805C31.7864 37.1724 29.3411 37.1724 27.1588 36.2805L13.1588 30.6305C12.6104 30.413 12.1405 30.0352 11.8104 29.5463C11.4803 29.0574 11.3055 28.4803 11.3088 27.8905V16.0905L18.3088 18.4505V26.4505C18.3088 26.7422 18.4247 27.022 18.631 27.2283C18.8372 27.4346 19.117 27.5505 19.4088 27.5505C19.7005 27.5505 19.9803 27.4346 20.1866 27.2283C20.3929 27.022 20.5088 26.7422 20.5088 26.4505V19.2205L29.9088 22.4205C30.3788 22.5805 30.8887 22.5805 31.3588 22.4205L42.7588 18.5505V22.6205C42.0715 22.8771 41.4962 23.367 41.1334 24.0046C40.7705 24.6423 40.6432 25.3871 40.7736 26.109C40.904 26.831 41.2839 27.4842 41.8468 27.9546C42.4098 28.425 43.1201 28.6827 43.8538 28.6827C44.5874 28.6827 45.2977 28.425 45.8607 27.9546C46.4237 27.4842 46.8035 26.831 46.9339 26.109C47.0643 25.3871 46.937 24.6423 46.5742 24.0046C46.2113 23.367 45.636 22.8771 44.9488 22.6205V17.7905L59.7688 12.7905C60.1916 12.6544 60.5601 12.3872 60.8209 12.0276C61.0816 11.668 61.221 11.2346 61.2188 10.7905C61.2214 10.3361 61.0738 9.89368 60.7989 9.53196C60.524 9.17024 60.1372 8.90954 59.6988 8.79046L31.2888 0.120458C30.8599 -0.0193194 30.3976 -0.0193194 29.9688 0.120458L1.56876 8.78045C1.13264 8.90509 0.74831 9.16695 0.472717 9.5272C0.197125 9.88746 0.0449429 10.3269 0.0387573 10.7805C0.0340398 11.2267 0.17364 11.6624 0.436737 12.0228C0.699834 12.3832 1.07233 12.649 1.49875 12.7805L9.18875 15.3905V27.9405C9.18827 28.5236 9.28982 29.1023 9.48877 29.6505H9.23877C8.4166 29.6505 7.62809 29.9771 7.04672 30.5584C6.46536 31.1398 6.13876 31.9283 6.13876 32.7505V35.8905C6.16482 36.1628 6.29143 36.4157 6.4939 36.5997C6.69637 36.7837 6.96016 36.8857 7.23376 36.8857C7.50737 36.8857 7.77113 36.7837 7.9736 36.5997C8.17607 36.4157 8.30271 36.1628 8.32877 35.8905V32.8005C8.32876 32.6814 8.35237 32.5636 8.39822 32.4537C8.44408 32.3439 8.51125 32.2442 8.59589 32.1605C8.68052 32.0768 8.78092 32.0107 8.89127 31.9661C9.00162 31.9214 9.11974 31.8991 9.23877 31.9005H10.9888C11.4123 32.2623 11.8919 32.5528 12.4088 32.7605L26.4088 38.4205C29.118 39.5206 32.1495 39.5206 34.8588 38.4205L42.7588 35.2205V38.8405C42.7442 38.993 42.7616 39.147 42.81 39.2925C42.8584 39.4379 42.9367 39.5716 43.0398 39.6851C43.1429 39.7985 43.2685 39.8891 43.4087 39.9512C43.5489 40.0132 43.7005 40.0452 43.8538 40.0452C44.007 40.0452 44.1586 40.0132 44.2988 39.9512C44.439 39.8891 44.5647 39.7985 44.6678 39.6851C44.7709 39.5716 44.8491 39.4379 44.8975 39.2925C44.9459 39.147 44.9634 38.993 44.9488 38.8405V34.7705C44.9496 34.6029 44.9083 34.4379 44.8288 34.2905L48.8288 32.6605C49.3413 32.4503 49.8173 32.16 50.2388 31.8005H57.0188C57.5492 31.8005 58.0579 32.0112 58.433 32.3862C58.8081 32.7613 59.0188 33.27 59.0188 33.8005V39.9105C59.0188 40.4409 58.8081 40.9496 58.433 41.3247C58.0579 41.6997 57.5492 41.9105 57.0188 41.9105H5.13876C2.27876 41.9105 -0.03125 45.3605 -0.03125 48.2205V54.3005C-0.02125 56.8205 1.85876 58.3005 5.13876 58.3005Z" fill="#143282"/>
<path d="M41.8398 56.2191H59.8398C60.6355 56.2191 61.3985 55.9031 61.9612 55.3405C62.5238 54.7779 62.8398 54.0148 62.8398 53.2191V47.1191C62.8398 46.3235 62.5238 45.5604 61.9612 44.9978C61.3985 44.4352 60.6355 44.1191 59.8398 44.1191H41.8398V42.1191H59.8398C62.6398 42.1191 64.9198 45.5391 64.9198 48.3491V54.4491C64.9198 57.2591 62.6398 58.3891 59.8398 58.4491H41.8398V56.2191Z" fill="#143282"/>
<path d="M59.8691 58.3009H41.8691C41.8486 58.2987 41.8295 58.2896 41.8149 58.275C41.8004 58.2604 41.7912 58.2413 41.7891 58.2209V56.2209C41.7912 56.2004 41.8004 56.1813 41.8149 56.1667C41.8295 56.1522 41.8486 56.143 41.8691 56.1409H59.8691C60.6647 56.1409 61.4278 55.8248 61.9904 55.2622C62.553 54.6996 62.8691 53.9365 62.8691 53.1409V47.0409C62.8691 46.2452 62.553 45.4821 61.9904 44.9195C61.4278 44.3569 60.6647 44.0409 59.8691 44.0409H41.8691C41.8486 44.0387 41.8295 44.0296 41.8149 44.015C41.8004 44.0004 41.7912 43.9813 41.7891 43.9609V41.9609C41.7912 41.9404 41.8004 41.9213 41.8149 41.9067C41.8295 41.8922 41.8486 41.883 41.8691 41.8809H59.8691C62.7191 41.8809 65.0291 45.3309 65.0291 48.1909V54.2909C65.0291 56.8209 63.1391 58.2909 59.8691 58.3009ZM41.8691 58.1409H59.8691C63.0391 58.1409 64.8691 56.7209 64.8691 54.2709V48.2209C64.8691 45.4409 62.6291 42.0709 59.8691 42.0709H41.8691V43.9409H59.8691C60.7001 43.9435 61.4962 44.2755 62.0829 44.8641C62.6696 45.4526 62.9991 46.2498 62.9991 47.0809V53.1809C62.9991 54.011 62.6693 54.8071 62.0823 55.3941C61.4953 55.9811 60.6992 56.3109 59.8691 56.3109H41.8691V58.1409Z" fill="#143282"/>
<path d="M10.0297 56.6807C9.80334 56.6781 9.58713 56.5863 9.42801 56.4253C9.26888 56.2643 9.17967 56.0471 9.17969 55.8207V43.5707C9.17969 43.4591 9.20167 43.3485 9.24438 43.2454C9.2871 43.1423 9.34972 43.0486 9.42865 42.9697C9.50758 42.8907 9.60128 42.8281 9.70441 42.7854C9.80753 42.7427 9.91807 42.7207 10.0297 42.7207C10.2561 42.7207 10.4733 42.8099 10.6343 42.969C10.7953 43.1282 10.887 43.3444 10.8897 43.5707V55.8207C10.8871 56.048 10.7956 56.2652 10.6349 56.4259C10.4742 56.5867 10.257 56.6781 10.0297 56.6807Z" fill="#143282"/>
<path d="M16.5202 56.6801C16.2921 56.6801 16.0733 56.5895 15.912 56.4282C15.7508 56.267 15.6602 56.0482 15.6602 55.8201V43.5701C15.683 43.3593 15.7829 43.1644 15.9407 43.0227C16.0985 42.8811 16.3031 42.8027 16.5152 42.8027C16.7272 42.8027 16.9318 42.8811 17.0896 43.0227C17.2474 43.1644 17.3473 43.3593 17.3702 43.5701V55.8201C17.3702 56.0465 17.281 56.2637 17.1218 56.4247C16.9627 56.5857 16.7465 56.6775 16.5202 56.6801Z" fill="#143282"/>
<path d="M56.7891 52.8198V47.2898C56.7891 46.9971 56.5518 46.7598 56.2591 46.7598H21.5891C21.2964 46.7598 21.0591 46.9971 21.0591 47.2898V52.8198C21.0591 53.1125 21.2964 53.3498 21.5891 53.3498H56.2591C56.5518 53.3498 56.7891 53.1125 56.7891 52.8198Z" fill="#FDC300"/>
<path d="M56.2192 54.2199H21.6192C21.2434 54.2173 20.8837 54.0669 20.618 53.8011C20.3523 53.5354 20.2018 53.1757 20.1992 52.7999V47.3399C20.2018 46.9641 20.3523 46.6045 20.618 46.3387C20.8837 46.073 21.2434 45.9225 21.6192 45.9199H56.2192C56.595 45.9225 56.9547 46.073 57.2204 46.3387C57.4862 46.6045 57.6366 46.9641 57.6392 47.3399V52.7999C57.6366 53.1757 57.4862 53.5354 57.2204 53.8011C56.9547 54.0669 56.595 54.2173 56.2192 54.2199ZM21.9092 52.5099H55.9092V47.6199H21.9092V52.5099Z" fill="#143282"/>
</g>
<defs>
<clipPath id="clip0_772_11121">
<rect width="65.03" height="58.3" fill="white"/>
</clipPath>
</defs>
</svg>
